<?xml version="1.0" encoding="utf-8"?>
<!-- Generator: Adobe Illustrator 16.0.0, SVG Export Plug-In . SVG Version: 6.00 Build 0)  -->
<!DOCTYPE svg PUBLIC "-//W3C//DTD SVG 1.1//EN" "http://www.w3.org/Graphics/SVG/1.1/DTD/svg11.dtd">
<svg version="1.1" id="Layer_1" xmlns="http://www.w3.org/2000/svg" xmlns:xlink="http://www.w3.org/1999/xlink" x="0px" y="0px"
	 width="460px" height="460px" viewBox="0 0 460 460" enable-background="new 0 0 460 460" xml:space="preserve">
<g>
	<g>
		<circle fill="#F1083F" cx="192.234" cy="27.847" r="0.033"/>
		<circle fill="#F1083F" cx="203.385" cy="27.847" r="0.033"/>
		<circle fill="#F1083F" cx="214.535" cy="27.847" r="0.033"/>
		<circle fill="#F1083F" cx="225.685" cy="27.847" r="0.033"/>
		<circle fill="#F1083F" cx="236.835" cy="27.847" r="0.033"/>
		<circle fill="#F1083F" cx="247.985" cy="27.847" r="0.033"/>
		<circle fill="#F1083F" cx="147.634" cy="39.919" r="0.033"/>
		<circle fill="#F1083F" cx="158.783" cy="39.919" r="0.033"/>
		<circle fill="#F1083F" cx="169.934" cy="39.919" r="0.033"/>
		<circle fill="#F1083F" cx="181.084" cy="39.919" r="0.033"/>
		<ellipse fill="#F1083F" cx="192.234" cy="39.919" rx="0.062" ry="0.067"/>
		<ellipse fill="#F1083F" cx="203.385" cy="39.919" rx="0.062" ry="0.067"/>
		<ellipse fill="#F1083F" cx="214.535" cy="39.919" rx="0.062" ry="0.067"/>
		<circle fill="#F1083F" cx="225.685" cy="39.919" r="0.067"/>
		<ellipse fill="#F1083F" cx="236.835" cy="39.919" rx="0.062" ry="0.067"/>
		<ellipse fill="#F1083F" cx="247.985" cy="39.919" rx="0.062" ry="0.067"/>
		<circle fill="#F1083F" cx="259.135" cy="39.919" r="0.033"/>
		<circle fill="#F1083F" cx="270.286" cy="39.919" r="0.033"/>
		<circle fill="#F1083F" cx="281.437" cy="39.919" r="0.033"/>
		<circle fill="#F1083F" cx="125.333" cy="51.991" r="0.033"/>
		<circle fill="#F1083F" cx="136.483" cy="51.991" r="0.033"/>
		<circle fill="#F1083F" cx="147.634" cy="51.992" r="0.067"/>
		<circle fill="#F1083F" cx="158.783" cy="51.992" r="0.067"/>
		<ellipse fill="#F1083F" cx="169.934" cy="51.991" rx="0.093" ry="0.1"/>
		<ellipse fill="#F1083F" cx="181.084" cy="51.992" rx="0.124" ry="0.134"/>
		<ellipse fill="#F1083F" cx="192.234" cy="51.991" rx="0.154" ry="0.167"/>
		<ellipse fill="#F1083F" cx="203.385" cy="51.991" rx="0.154" ry="0.167"/>
		<ellipse fill="#F1083F" cx="214.535" cy="51.991" rx="0.154" ry="0.167"/>
		<ellipse fill="#F1083F" cx="225.685" cy="51.991" rx="0.155" ry="0.167"/>
		<ellipse fill="#F1083F" cx="236.835" cy="51.991" rx="0.154" ry="0.167"/>
		<ellipse fill="#F1083F" cx="247.985" cy="51.992" rx="0.123" ry="0.134"/>
		<ellipse fill="#F1083F" cx="259.135" cy="51.991" rx="0.094" ry="0.1"/>
		<ellipse fill="#F1083F" cx="270.286" cy="51.991" rx="0.093" ry="0.1"/>
		<ellipse fill="#F1083F" cx="281.437" cy="51.992" rx="0.062" ry="0.067"/>
		<circle fill="#F1083F" cx="292.586" cy="51.991" r="0.033"/>
		<circle fill="#F1083F" cx="303.736" cy="51.991" r="0.033"/>
		<circle fill="#F1083F" cx="103.033" cy="64.064" r="0.033"/>
		<circle fill="#F1083F" cx="114.183" cy="64.064" r="0.033"/>
		<circle fill="#F1083F" cx="125.333" cy="64.064" r="0.067"/>
		<ellipse fill="#F1083F" cx="136.483" cy="64.064" rx="0.093" ry="0.1"/>
		<ellipse fill="#F1083F" cx="147.634" cy="64.064" rx="0.124" ry="0.134"/>
		<ellipse fill="#F1083F" cx="158.783" cy="64.064" rx="0.154" ry="0.167"/>
		<ellipse fill="#F1083F" cx="169.934" cy="64.064" rx="0.217" ry="0.234"/>
		<ellipse fill="#F1083F" cx="181.084" cy="64.064" rx="0.247" ry="0.268"/>
		<ellipse fill="#F1083F" cx="192.234" cy="64.064" rx="0.278" ry="0.302"/>
		<ellipse fill="#F1083F" cx="203.385" cy="64.064" rx="0.309" ry="0.335"/>
		<ellipse fill="#F1083F" cx="214.535" cy="64.064" rx="0.309" ry="0.335"/>
		<ellipse fill="#F1083F" cx="225.685" cy="64.064" rx="0.31" ry="0.335"/>
		<ellipse fill="#F1083F" cx="236.835" cy="64.064" rx="0.278" ry="0.302"/>
		<ellipse fill="#F1083F" cx="247.985" cy="64.064" rx="0.247" ry="0.268"/>
		<ellipse fill="#F1083F" cx="259.135" cy="64.064" rx="0.217" ry="0.234"/>
		<ellipse fill="#F1083F" cx="270.286" cy="64.064" rx="0.185" ry="0.201"/>
		<ellipse fill="#F1083F" cx="281.437" cy="64.064" rx="0.123" ry="0.134"/>
		<ellipse fill="#F1083F" cx="292.586" cy="64.064" rx="0.092" ry="0.1"/>
		<ellipse fill="#F1083F" cx="303.736" cy="64.064" rx="0.062" ry="0.067"/>
		<circle fill="#F1083F" cx="314.887" cy="64.064" r="0.033"/>
		<circle fill="#F1083F" cx="326.036" cy="64.064" r="0.033"/>
		<circle fill="#F1083F" cx="91.882" cy="76.137" r="0.033"/>
		<circle fill="#F1083F" cx="103.033" cy="76.137" r="0.033"/>
		<ellipse fill="#F1083F" cx="114.183" cy="76.136" rx="0.062" ry="0.067"/>
		<ellipse fill="#F1083F" cx="125.333" cy="76.136" rx="0.124" ry="0.134"/>
		<ellipse fill="#F1083F" cx="136.483" cy="76.136" rx="0.186" ry="0.201"/>
		<ellipse fill="#F1083F" cx="147.634" cy="76.136" rx="0.247" ry="0.268"/>
		<ellipse fill="#F1083F" cx="158.783" cy="76.136" rx="0.341" ry="0.368"/>
		<ellipse fill="#F1083F" cx="169.934" cy="76.136" rx="0.402" ry="0.435"/>
		<ellipse fill="#F1083F" cx="181.084" cy="76.137" rx="0.464" ry="0.503"/>
		<ellipse fill="#F1083F" cx="192.234" cy="76.136" rx="0.525" ry="0.569"/>
		<ellipse fill="#F1083F" cx="203.385" cy="76.137" rx="0.556" ry="0.603"/>
		<ellipse fill="#F1083F" cx="214.535" cy="76.137" rx="0.556" ry="0.603"/>
		<ellipse fill="#F1083F" cx="225.685" cy="76.137" rx="0.557" ry="0.603"/>
		<ellipse fill="#F1083F" cx="236.835" cy="76.136" rx="0.526" ry="0.569"/>
		<ellipse fill="#F1083F" cx="247.985" cy="76.137" rx="0.464" ry="0.503"/>
		<ellipse fill="#F1083F" cx="259.135" cy="76.136" rx="0.402" ry="0.435"/>
		<ellipse fill="#F1083F" cx="270.286" cy="76.136" rx="0.34" ry="0.368"/>
		<ellipse fill="#F1083F" cx="281.437" cy="76.136" rx="0.247" ry="0.268"/>
		<ellipse fill="#F1083F" cx="292.586" cy="76.136" rx="0.186" ry="0.201"/>
		<ellipse fill="#F1083F" cx="303.736" cy="76.136" rx="0.123" ry="0.134"/>
		<ellipse fill="#F1083F" cx="314.887" cy="76.137" rx="0.092" ry="0.1"/>
		<circle fill="#F1083F" cx="326.036" cy="76.137" r="0.033"/>
		<circle fill="#F1083F" cx="337.187" cy="76.137" r="0.033"/>
		<circle fill="#F1083F" cx="80.732" cy="88.209" r="0.034"/>
		<circle fill="#F1083F" cx="91.882" cy="88.209" r="0.034"/>
		<ellipse fill="#F1083F" cx="103.033" cy="88.209" rx="0.092" ry="0.101"/>
		<ellipse fill="#F1083F" cx="114.183" cy="88.209" rx="0.154" ry="0.168"/>
		<ellipse fill="#F1083F" cx="125.333" cy="88.209" rx="0.247" ry="0.268"/>
		<ellipse fill="#F1083F" cx="136.483" cy="88.209" rx="0.34" ry="0.368"/>
		<ellipse fill="#F1083F" cx="147.634" cy="88.209" rx="0.433" ry="0.469"/>
		<ellipse fill="#F1083F" cx="158.783" cy="88.209" rx="0.557" ry="0.603"/>
		<ellipse fill="#F1083F" cx="169.934" cy="88.21" rx="0.681" ry="0.737"/>
		<ellipse fill="#F1083F" cx="181.084" cy="88.209" rx="0.773" ry="0.837"/>
		<ellipse fill="#F1083F" cx="192.234" cy="88.209" rx="0.835" ry="0.904"/>
		<ellipse fill="#F1083F" cx="203.385" cy="88.209" rx="0.896" ry="0.971"/>
		<ellipse fill="#F1083F" cx="214.535" cy="88.21" rx="0.927" ry="1.004"/>
		<ellipse fill="#F1083F" cx="225.685" cy="88.209" rx="0.896" ry="0.971"/>
		<ellipse fill="#F1083F" cx="236.835" cy="88.21" rx="0.865" ry="0.937"/>
		<ellipse fill="#F1083F" cx="247.985" cy="88.209" rx="0.772" ry="0.837"/>
		<ellipse fill="#F1083F" cx="259.135" cy="88.21" rx="0.682" ry="0.737"/>
		<ellipse fill="#F1083F" cx="270.286" cy="88.209" rx="0.557" ry="0.603"/>
		<ellipse fill="#F1083F" cx="281.437" cy="88.209" rx="0.463" ry="0.502"/>
		<ellipse fill="#F1083F" cx="292.586" cy="88.209" rx="0.34" ry="0.368"/>
		<ellipse fill="#F1083F" cx="303.736" cy="88.209" rx="0.248" ry="0.268"/>
		<ellipse fill="#F1083F" cx="314.887" cy="88.209" rx="0.154" ry="0.168"/>
		<ellipse fill="#F1083F" cx="326.036" cy="88.209" rx="0.093" ry="0.101"/>
		<circle fill="#F1083F" cx="337.187" cy="88.208" r="0.067"/>
		<circle fill="#F1083F" cx="348.337" cy="88.209" r="0.034"/>
		<circle fill="#F1083F" cx="69.583" cy="100.281" r="0.033"/>
		<circle fill="#F1083F" cx="80.732" cy="100.281" r="0.033"/>
		<ellipse fill="#F1083F" cx="91.882" cy="100.281" rx="0.092" ry="0.1"/>
		<ellipse fill="#F1083F" cx="103.033" cy="100.282" rx="0.154" ry="0.167"/>
		<ellipse fill="#F1083F" cx="114.183" cy="100.282" rx="0.278" ry="0.301"/>
		<ellipse fill="#F1083F" cx="125.333" cy="100.282" rx="0.402" ry="0.435"/>
		<ellipse fill="#F1083F" cx="136.483" cy="100.282" rx="0.525" ry="0.569"/>
		<ellipse fill="#F1083F" cx="147.634" cy="100.282" rx="0.71" ry="0.77"/>
		<ellipse fill="#F1083F" cx="158.783" cy="100.282" rx="0.866" ry="0.938"/>
		<ellipse fill="#F1083F" cx="169.934" cy="100.282" rx="1.051" ry="1.138"/>
		<ellipse fill="#F1083F" cx="181.084" cy="100.282" rx="1.174" ry="1.272"/>
		<ellipse fill="#F1083F" cx="192.234" cy="100.282" rx="1.298" ry="1.406"/>
		<ellipse fill="#F1083F" cx="203.385" cy="100.282" rx="1.36" ry="1.473"/>
		<ellipse fill="#F1083F" cx="214.535" cy="100.282" rx="1.391" ry="1.506"/>
		<ellipse fill="#F1083F" cx="225.685" cy="100.282" rx="1.36" ry="1.473"/>
		<ellipse fill="#F1083F" cx="236.835" cy="100.282" rx="1.299" ry="1.406"/>
		<ellipse fill="#F1083F" cx="247.985" cy="100.282" rx="1.206" ry="1.306"/>
		<ellipse fill="#F1083F" cx="259.135" cy="100.282" rx="1.052" ry="1.138"/>
		<ellipse fill="#F1083F" cx="270.286" cy="100.282" rx="0.896" ry="0.971"/>
		<ellipse fill="#F1083F" cx="281.437" cy="100.282" rx="0.711" ry="0.77"/>
		<ellipse fill="#F1083F" cx="292.586" cy="100.282" rx="0.557" ry="0.603"/>
		<ellipse fill="#F1083F" cx="303.736" cy="100.282" rx="0.402" ry="0.435"/>
		<ellipse fill="#F1083F" cx="314.887" cy="100.282" rx="0.279" ry="0.301"/>
		<ellipse fill="#F1083F" cx="326.036" cy="100.281" rx="0.186" ry="0.201"/>
		<ellipse fill="#F1083F" cx="337.187" cy="100.281" rx="0.093" ry="0.1"/>
		<circle fill="#F1083F" cx="348.337" cy="100.281" r="0.067"/>
		<circle fill="#F1083F" cx="359.487" cy="100.281" r="0.033"/>
		<circle fill="#F1083F" cx="58.432" cy="112.354" r="0.033"/>
		<circle fill="#F1083F" cx="69.583" cy="112.354" r="0.033"/>
		<ellipse fill="#F1083F" cx="80.732" cy="112.354" rx="0.094" ry="0.1"/>
		<ellipse fill="#F1083F" cx="91.882" cy="112.354" rx="0.155" ry="0.167"/>
		<ellipse fill="#F1083F" cx="103.033" cy="112.354" rx="0.279" ry="0.302"/>
		<ellipse fill="#F1083F" cx="114.183" cy="112.354" rx="0.432" ry="0.469"/>
		<ellipse fill="#F1083F" cx="125.333" cy="112.354" rx="0.619" ry="0.669"/>
		<ellipse fill="#F1083F" cx="136.483" cy="112.354" rx="0.835" ry="0.904"/>
		<ellipse fill="#F1083F" cx="147.634" cy="112.354" rx="1.051" ry="1.138"/>
		<ellipse fill="#F1083F" cx="158.783" cy="112.354" rx="1.299" ry="1.406"/>
		<ellipse fill="#F1083F" cx="169.934" cy="112.354" rx="1.515" ry="1.64"/>
		<ellipse fill="#F1083F" cx="181.084" cy="112.354" rx="1.731" ry="1.875"/>
		<ellipse fill="#F1083F" cx="192.234" cy="112.354" rx="1.886" ry="2.042"/>
		<ellipse fill="#F1083F" cx="203.385" cy="112.354" rx="2.009" ry="2.176"/>
		<ellipse fill="#F1083F" cx="214.535" cy="112.354" rx="2.04" ry="2.209"/>
		<ellipse fill="#F1083F" cx="225.685" cy="112.354" rx="2.01" ry="2.176"/>
		<ellipse fill="#F1083F" cx="236.835" cy="112.354" rx="1.887" ry="2.042"/>
		<ellipse fill="#F1083F" cx="247.985" cy="112.354" rx="1.731" ry="1.875"/>
		<ellipse fill="#F1083F" cx="259.135" cy="112.354" rx="1.547" ry="1.674"/>
		<ellipse fill="#F1083F" cx="270.286" cy="112.354" rx="1.298" ry="1.406"/>
		<ellipse fill="#F1083F" cx="281.437" cy="112.354" rx="1.081" ry="1.172"/>
		<ellipse fill="#F1083F" cx="292.586" cy="112.354" rx="0.835" ry="0.904"/>
		<ellipse fill="#F1083F" cx="303.736" cy="112.354" rx="0.618" ry="0.669"/>
		<ellipse fill="#F1083F" cx="314.887" cy="112.354" rx="0.434" ry="0.469"/>
		<ellipse fill="#F1083F" cx="326.036" cy="112.354" rx="0.31" ry="0.334"/>
		<ellipse fill="#F1083F" cx="337.187" cy="112.354" rx="0.186" ry="0.201"/>
		<ellipse fill="#F1083F" cx="348.337" cy="112.354" rx="0.093" ry="0.1"/>
		<circle fill="#F1083F" cx="359.487" cy="112.354" r="0.033"/>
		<circle fill="#F1083F" cx="370.638" cy="112.354" r="0.033"/>
		<circle fill="#F1083F" cx="58.432" cy="124.427" r="0.033"/>
		<ellipse fill="#F1083F" cx="69.583" cy="124.427" rx="0.062" ry="0.067"/>
		<ellipse fill="#F1083F" cx="80.732" cy="124.427" rx="0.155" ry="0.167"/>
		<ellipse fill="#F1083F" cx="91.882" cy="124.427" rx="0.279" ry="0.301"/>
		<ellipse fill="#F1083F" cx="103.033" cy="124.427" rx="0.433" ry="0.468"/>
		<ellipse fill="#F1083F" cx="114.183" cy="124.427" rx="0.649" ry="0.703"/>
		<ellipse fill="#F1083F" cx="125.333" cy="124.427" rx="0.897" ry="0.971"/>
		<ellipse fill="#F1083F" cx="136.483" cy="124.427" rx="1.175" ry="1.272"/>
		<ellipse fill="#F1083F" cx="147.634" cy="124.427" rx="1.483" ry="1.607"/>
		<ellipse fill="#F1083F" cx="158.783" cy="124.427" rx="1.825" ry="1.975"/>
		<ellipse fill="#F1083F" cx="169.934" cy="124.427" rx="2.134" ry="2.31"/>
		<ellipse fill="#F1083F" cx="181.084" cy="124.427" rx="2.412" ry="2.611"/>
		<ellipse fill="#F1083F" cx="192.234" cy="124.426" rx="2.628" ry="2.845"/>
		<ellipse fill="#F1083F" cx="203.385" cy="124.427" rx="2.782" ry="3.013"/>
		<ellipse fill="#F1083F" cx="214.535" cy="124.427" rx="2.844" ry="3.08"/>
		<ellipse fill="#F1083F" cx="225.685" cy="124.427" rx="2.783" ry="3.013"/>
		<ellipse fill="#F1083F" cx="236.835" cy="124.427" rx="2.659" ry="2.879"/>
		<ellipse fill="#F1083F" cx="247.985" cy="124.427" rx="2.442" ry="2.645"/>
		<ellipse fill="#F1083F" cx="259.135" cy="124.427" rx="2.166" ry="2.344"/>
		<ellipse fill="#F1083F" cx="270.286" cy="124.427" rx="1.854" ry="2.008"/>
		<ellipse fill="#F1083F" cx="281.437" cy="124.427" rx="1.514" ry="1.64"/>
		<ellipse fill="#F1083F" cx="292.586" cy="124.427" rx="1.206" ry="1.306"/>
		<ellipse fill="#F1083F" cx="303.736" cy="124.427" rx="0.928" ry="1.004"/>
		<ellipse fill="#F1083F" cx="314.887" cy="124.427" rx="0.65" ry="0.703"/>
		<ellipse fill="#F1083F" cx="326.036" cy="124.427" rx="0.433" ry="0.468"/>
		<ellipse fill="#F1083F" cx="337.187" cy="124.427" rx="0.278" ry="0.301"/>
		<ellipse fill="#F1083F" cx="348.337" cy="124.427" rx="0.155" ry="0.167"/>
		<ellipse fill="#F1083F" cx="359.487" cy="124.427" rx="0.093" ry="0.1"/>
		<circle fill="#F1083F" cx="370.638" cy="124.427" r="0.033"/>
		<circle fill="#F1083F" cx="47.282" cy="136.499" r="0.033"/>
		<ellipse fill="#F1083F" cx="58.432" cy="136.499" rx="0.062" ry="0.067"/>
		<ellipse fill="#F1083F" cx="69.583" cy="136.499" rx="0.124" ry="0.134"/>
		<ellipse fill="#F1083F" cx="80.732" cy="136.499" rx="0.248" ry="0.268"/>
		<ellipse fill="#F1083F" cx="91.882" cy="136.499" rx="0.402" ry="0.435"/>
		<ellipse fill="#F1083F" cx="103.033" cy="136.499" rx="0.619" ry="0.67"/>
		<ellipse fill="#F1083F" cx="114.183" cy="136.499" rx="0.896" ry="0.971"/>
		<ellipse fill="#F1083F" cx="125.333" cy="136.499" rx="1.206" ry="1.306"/>
		<ellipse fill="#F1083F" cx="136.483" cy="136.499" rx="1.608" ry="1.741"/>
		<ellipse fill="#F1083F" cx="147.634" cy="136.499" rx="2.009" ry="2.176"/>
		<ellipse fill="#F1083F" cx="158.783" cy="136.499" rx="2.443" ry="2.645"/>
		<ellipse fill="#F1083F" cx="169.934" cy="136.499" rx="2.876" ry="3.114"/>
		<ellipse fill="#F1083F" cx="181.084" cy="136.499" rx="3.247" ry="3.515"/>
		<ellipse fill="#F1083F" cx="192.234" cy="136.499" rx="3.555" ry="3.849"/>
		<ellipse fill="#F1083F" cx="203.385" cy="136.499" rx="3.771" ry="4.084"/>
		<ellipse fill="#F1083F" cx="214.535" cy="136.499" rx="3.833" ry="4.151"/>
		<ellipse fill="#F1083F" cx="225.685" cy="136.499" rx="3.772" ry="4.084"/>
		<ellipse fill="#F1083F" cx="236.835" cy="136.499" rx="3.587" ry="3.883"/>
		<ellipse fill="#F1083F" cx="247.985" cy="136.499" rx="3.277" ry="3.549"/>
		<ellipse fill="#F1083F" cx="259.135" cy="136.499" rx="2.907" ry="3.147"/>
		<ellipse fill="#F1083F" cx="270.286" cy="136.499" rx="2.504" ry="2.711"/>
		<ellipse fill="#F1083F" cx="281.437" cy="136.499" rx="2.07" ry="2.242"/>
		<ellipse fill="#F1083F" cx="292.586" cy="136.499" rx="1.639" ry="1.774"/>
		<ellipse fill="#F1083F" cx="303.736" cy="136.499" rx="1.236" ry="1.34"/>
		<ellipse fill="#F1083F" cx="314.887" cy="136.499" rx="0.928" ry="1.004"/>
		<ellipse fill="#F1083F" cx="326.036" cy="136.499" rx="0.649" ry="0.703"/>
		<ellipse fill="#F1083F" cx="337.187" cy="136.499" rx="0.402" ry="0.435"/>
		<ellipse fill="#F1083F" cx="348.337" cy="136.499" rx="0.247" ry="0.268"/>
		<ellipse fill="#F1083F" cx="359.487" cy="136.499" rx="0.124" ry="0.134"/>
		<circle fill="#F1083F" cx="370.638" cy="136.499" r="0.067"/>
		<circle fill="#F1083F" cx="381.786" cy="136.499" r="0.033"/>
		<circle fill="#F1083F" cx="47.282" cy="148.572" r="0.033"/>
		<ellipse fill="#F1083F" cx="58.432" cy="148.572" rx="0.093" ry="0.1"/>
		<ellipse fill="#F1083F" cx="69.583" cy="148.572" rx="0.185" ry="0.201"/>
		<ellipse fill="#F1083F" cx="80.732" cy="148.572" rx="0.34" ry="0.368"/>
		<ellipse fill="#F1083F" cx="91.882" cy="148.571" rx="0.526" ry="0.569"/>
		<ellipse fill="#F1083F" cx="103.033" cy="148.572" rx="0.834" ry="0.904"/>
		<ellipse fill="#F1083F" cx="114.183" cy="148.571" rx="1.174" ry="1.272"/>
		<ellipse fill="#F1083F" cx="125.333" cy="148.572" rx="1.608" ry="1.741"/>
		<ellipse fill="#F1083F" cx="136.483" cy="148.571" rx="2.102" ry="2.276"/>
		<ellipse fill="#F1083F" cx="147.634" cy="148.571" rx="2.628" ry="2.846"/>
		<ellipse fill="#F1083F" cx="158.783" cy="148.572" rx="3.185" ry="3.448"/>
		<ellipse fill="#F1083F" cx="169.934" cy="148.571" rx="3.742" ry="4.05"/>
		<ellipse fill="#F1083F" cx="181.084" cy="148.571" rx="4.267" ry="4.62"/>
		<ellipse fill="#F1083F" cx="192.234" cy="148.572" rx="4.669" ry="5.055"/>
		<ellipse fill="#F1083F" cx="203.385" cy="148.572" rx="4.916" ry="5.html"/>
		<ellipse fill="#F1083F" cx="214.535" cy="148.572" rx="5.009" ry="5.423"/>
		<ellipse fill="#F1083F" cx="225.685" cy="148.572" rx="4.947" ry="5.356"/>
		<ellipse fill="#F1083F" cx="236.835" cy="148.572" rx="4.7" ry="5.089"/>
		<ellipse fill="#F1083F" cx="247.985" cy="148.571" rx="4.298" ry="4.653"/>
		<ellipse fill="#F1083F" cx="259.135" cy="148.571" rx="3.805" ry="4.117"/>
		<ellipse fill="#F1083F" cx="270.286" cy="148.572" rx="3.246" ry="3.515"/>
		<ellipse fill="#F1083F" cx="281.437" cy="148.571" rx="2.689" ry="2.913"/>
		<ellipse fill="#F1083F" cx="292.586" cy="148.571" rx="2.134" ry="2.31"/>
		<ellipse fill="#F1083F" cx="303.736" cy="148.572" rx="1.639" ry="1.774"/>
		<ellipse fill="#F1083F" cx="314.887" cy="148.571" rx="1.206" ry="1.306"/>
		<ellipse fill="#F1083F" cx="326.036" cy="148.572" rx="0.865" ry="0.937"/>
		<ellipse fill="#F1083F" cx="337.187" cy="148.571" rx="0.559" ry="0.603"/>
		<ellipse fill="#F1083F" cx="348.337" cy="148.572" rx="0.34" ry="0.368"/>
		<ellipse fill="#F1083F" cx="359.487" cy="148.572" rx="0.186" ry="0.201"/>
		<ellipse fill="#F1083F" cx="370.638" cy="148.572" rx="0.093" ry="0.1"/>
		<circle fill="#F1083F" cx="381.786" cy="148.572" r="0.033"/>
		<circle fill="#F1083F" cx="36.131" cy="160.644" r="0.033"/>
		<circle fill="#F1083F" cx="47.282" cy="160.645" r="0.067"/>
		<ellipse fill="#F1083F" cx="58.432" cy="160.645" rx="0.124" ry="0.134"/>
		<ellipse fill="#F1083F" cx="69.583" cy="160.644" rx="0.247" ry="0.268"/>
		<ellipse fill="#F1083F" cx="80.732" cy="160.644" rx="0.433" ry="0.469"/>
		<ellipse fill="#F1083F" cx="91.882" cy="160.644" rx="0.711" ry="0.77"/>
		<ellipse fill="#F1083F" cx="103.033" cy="160.644" rx="1.051" ry="1.138"/>
		<ellipse fill="#F1083F" cx="114.183" cy="160.645" rx="1.484" ry="1.607"/>
		<ellipse fill="#F1083F" cx="125.333" cy="160.644" rx="2.009" ry="2.176"/>
		<ellipse fill="#F1083F" cx="136.483" cy="160.644" rx="2.628" ry="2.846"/>
		<ellipse fill="#F1083F" cx="147.634" cy="160.645" rx="3.309" ry="3.582"/>
		<ellipse fill="#F1083F" cx="158.783" cy="160.645" rx="4.02" ry="4.352"/>
		<ellipse fill="#F1083F" cx="169.934" cy="160.644" rx="4.762" ry="5.156"/>
		<ellipse fill="#F1083F" cx="181.084" cy="160.644" rx="5.226" ry="5.657"/>
		<ellipse fill="#F1083F" cx="192.234" cy="160.644" rx="5.38" ry="5.825"/>
		<ellipse fill="#F1083F" cx="203.385" cy="160.644" rx="5.379" ry="5.825"/>
		<ellipse fill="#F1083F" cx="214.535" cy="160.644" rx="5.379" ry="5.825"/>
		<ellipse fill="#F1083F" cx="225.685" cy="160.644" rx="5.38" ry="5.825"/>
		<ellipse fill="#F1083F" cx="236.835" cy="160.644" rx="5.38" ry="5.825"/>
		<ellipse fill="#F1083F" cx="247.985" cy="160.644" rx="5.257" ry="5.691"/>
		<ellipse fill="#F1083F" cx="259.135" cy="160.645" rx="4.793" ry="5.189"/>
		<ellipse fill="#F1083F" cx="270.286" cy="160.644" rx="4.081" ry="4.419"/>
		<ellipse fill="#F1083F" cx="281.437" cy="160.644" rx="3.37" ry="3.649"/>
		<ellipse fill="#F1083F" cx="292.586" cy="160.644" rx="2.69" ry="2.913"/>
		<ellipse fill="#F1083F" cx="303.736" cy="160.644" rx="2.072" ry="2.243"/>
		<ellipse fill="#F1083F" cx="314.887" cy="160.645" rx="1.546" ry="1.674"/>
		<ellipse fill="#F1083F" cx="326.036" cy="160.644" rx="1.081" ry="1.172"/>
		<ellipse fill="#F1083F" cx="337.187" cy="160.644" rx="0.743" ry="0.803"/>
		<ellipse fill="#F1083F" cx="348.337" cy="160.644" rx="0.464" ry="0.502"/>
		<ellipse fill="#F1083F" cx="359.487" cy="160.644" rx="0.278" ry="0.302"/>
		<ellipse fill="#F1083F" cx="370.638" cy="160.645" rx="0.124" ry="0.134"/>
		<ellipse fill="#F1083F" cx="381.786" cy="160.645" rx="0.062" ry="0.067"/>
		<circle fill="#F1083F" cx="392.938" cy="160.644" r="0.033"/>
		<circle fill="#F1083F" cx="36.131" cy="172.717" r="0.033"/>
		<ellipse fill="#F1083F" cx="47.282" cy="172.717" rx="0.062" ry="0.067"/>
		<ellipse fill="#F1083F" cx="58.432" cy="172.717" rx="0.154" ry="0.168"/>
		<ellipse fill="#F1083F" cx="69.583" cy="172.717" rx="0.34" ry="0.368"/>
		<ellipse fill="#F1083F" cx="80.732" cy="172.717" rx="0.557" ry="0.602"/>
		<ellipse fill="#F1083F" cx="91.882" cy="172.716" rx="0.866" ry="0.937"/>
		<ellipse fill="#F1083F" cx="103.033" cy="172.717" rx="1.299" ry="1.406"/>
		<ellipse fill="#F1083F" cx="114.183" cy="172.717" rx="1.824" ry="1.975"/>
		<ellipse fill="#F1083F" cx="125.333" cy="172.716" rx="2.443" ry="2.645"/>
		<ellipse fill="#F1083F" cx="136.483" cy="172.717" rx="3.185" ry="3.448"/>
		<ellipse fill="#F1083F" cx="147.634" cy="172.716" rx="4.02" ry="4.352"/>
		<ellipse fill="#F1083F" cx="158.783" cy="172.717" rx="4.917" ry="5.html"/>
		<ellipse fill="#F1083F" cx="169.934" cy="172.717" rx="5.35" ry="5.791"/>
		<ellipse fill="#F1083F" cx="181.084" cy="172.717" rx="5.38" ry="5.825"/>
		<ellipse fill="#F1083F" cx="192.234" cy="172.717" rx="5.38" ry="5.825"/>
		<ellipse fill="#F1083F" cx="203.385" cy="172.717" rx="5.379" ry="5.825"/>
		<ellipse fill="#F1083F" cx="214.535" cy="172.717" rx="5.379" ry="5.825"/>
		<ellipse fill="#F1083F" cx="225.685" cy="172.717" rx="5.38" ry="5.825"/>
		<ellipse fill="#F1083F" cx="236.835" cy="172.717" rx="5.38" ry="5.825"/>
		<ellipse fill="#F1083F" cx="247.985" cy="172.717" rx="5.38" ry="5.825"/>
		<ellipse fill="#F1083F" cx="259.135" cy="172.717" rx="5.381" ry="5.825"/>
		<ellipse fill="#F1083F" cx="270.286" cy="172.717" rx="4.978" ry="5.389"/>
		<ellipse fill="#F1083F" cx="281.437" cy="172.716" rx="4.111" ry="4.452"/>
		<ellipse fill="#F1083F" cx="292.586" cy="172.717" rx="3.246" ry="3.515"/>
		<ellipse fill="#F1083F" cx="303.736" cy="172.716" rx="2.505" ry="2.712"/>
		<ellipse fill="#F1083F" cx="314.887" cy="172.717" rx="1.854" ry="2.009"/>
		<ellipse fill="#F1083F" cx="326.036" cy="172.717" rx="1.33" ry="1.439"/>
		<ellipse fill="#F1083F" cx="337.187" cy="172.717" rx="0.897" ry="0.971"/>
		<ellipse fill="#F1083F" cx="348.337" cy="172.717" rx="0.587" ry="0.636"/>
		<ellipse fill="#F1083F" cx="359.487" cy="172.717" rx="0.34" ry="0.368"/>
		<ellipse fill="#F1083F" cx="370.638" cy="172.717" rx="0.186" ry="0.201"/>
		<ellipse fill="#F1083F" cx="381.786" cy="172.717" rx="0.093" ry="0.1"/>
		<circle fill="#F1083F" cx="392.938" cy="172.717" r="0.033"/>
		<circle fill="#F1083F" cx="36.131" cy="184.79" r="0.033"/>
		<ellipse fill="#F1083F" cx="47.282" cy="184.79" rx="0.093" ry="0.1"/>
		<ellipse fill="#F1083F" cx="58.432" cy="184.79" rx="0.216" ry="0.234"/>
		<ellipse fill="#F1083F" cx="69.583" cy="184.79" rx="0.401" ry="0.435"/>
		<ellipse fill="#F1083F" cx="80.732" cy="184.79" rx="0.68" ry="0.736"/>
		<ellipse fill="#F1083F" cx="91.882" cy="184.789" rx="1.052" ry="1.138"/>
		<ellipse fill="#F1083F" cx="103.033" cy="184.789" rx="1.515" ry="1.639"/>
		<ellipse fill="#F1083F" cx="114.183" cy="184.789" rx="2.133" ry="2.31"/>
		<ellipse fill="#F1083F" cx="125.333" cy="184.79" rx="2.875" ry="3.114"/>
		<ellipse fill="#F1083F" cx="136.483" cy="184.789" rx="3.741" ry="4.051"/>
		<ellipse fill="#F1083F" cx="147.634" cy="184.789" rx="4.761" ry="5.155"/>
		<ellipse fill="#F1083F" cx="158.783" cy="184.789" rx="5.35" ry="5.792"/>
		<ellipse fill="#F1083F" cx="169.934" cy="184.789" rx="5.38" ry="5.825"/>
		<ellipse fill="#F1083F" cx="181.084" cy="184.789" rx="5.38" ry="5.825"/>
		<ellipse fill="#F1083F" cx="192.234" cy="184.789" rx="5.38" ry="5.825"/>
		<ellipse fill="#F1083F" cx="203.385" cy="184.789" rx="5.379" ry="5.825"/>
		<ellipse fill="#F1083F" cx="214.535" cy="184.789" rx="5.379" ry="5.825"/>
		<ellipse fill="#F1083F" cx="225.685" cy="184.789" rx="5.38" ry="5.825"/>
		<ellipse fill="#F1083F" cx="236.835" cy="184.789" rx="5.38" ry="5.825"/>
		<ellipse fill="#F1083F" cx="247.985" cy="184.789" rx="5.38" ry="5.825"/>
		<ellipse fill="#F1083F" cx="259.135" cy="184.789" rx="5.381" ry="5.825"/>
		<ellipse fill="#F1083F" cx="270.286" cy="184.789" rx="5.38" ry="5.825"/>
		<ellipse fill="#F1083F" cx="281.437" cy="184.789" rx="4.823" ry="5.223"/>
		<ellipse fill="#F1083F" cx="292.586" cy="184.789" rx="3.834" ry="4.151"/>
		<ellipse fill="#F1083F" cx="303.736" cy="184.79" rx="2.938" ry="3.18"/>
		<ellipse fill="#F1083F" cx="314.887" cy="184.789" rx="2.194" ry="2.377"/>
		<ellipse fill="#F1083F" cx="326.036" cy="184.789" rx="1.577" ry="1.708"/>
		<ellipse fill="#F1083F" cx="337.187" cy="184.789" rx="1.083" ry="1.171"/>
		<ellipse fill="#F1083F" cx="348.337" cy="184.79" rx="0.68" ry="0.736"/>
		<ellipse fill="#F1083F" cx="359.487" cy="184.79" rx="0.401" ry="0.435"/>
		<ellipse fill="#F1083F" cx="370.638" cy="184.79" rx="0.217" ry="0.234"/>
		<ellipse fill="#F1083F" cx="381.786" cy="184.79" rx="0.093" ry="0.1"/>
		<circle fill="#F1083F" cx="392.938" cy="184.79" r="0.033"/>
		<circle fill="#F1083F" cx="36.131" cy="196.86" r="0.033"/>
		<ellipse fill="#F1083F" cx="47.282" cy="196.86" rx="0.124" ry="0.134"/>
		<ellipse fill="#F1083F" cx="58.432" cy="196.861" rx="0.247" ry="0.269"/>
		<ellipse fill="#F1083F" cx="69.583" cy="196.861" rx="0.463" ry="0.502"/>
		<ellipse fill="#F1083F" cx="80.732" cy="196.861" rx="0.773" ry="0.837"/>
		<ellipse fill="#F1083F" cx="91.882" cy="196.861" rx="1.175" ry="1.271"/>
		<ellipse fill="#F1083F" cx="103.033" cy="196.862" rx="1.731" ry="1.875"/>
		<ellipse fill="#F1083F" cx="114.183" cy="196.861" rx="2.412" ry="2.611"/>
		<ellipse fill="#F1083F" cx="125.333" cy="196.86" rx="3.247" ry="3.515"/>
		<ellipse fill="#F1083F" cx="136.483" cy="196.861" rx="4.267" ry="4.62"/>
		<ellipse fill="#F1083F" cx="147.634" cy="196.863" rx="5.225" ry="5.657"/>
		<ellipse fill="#F1083F" cx="158.783" cy="196.861" rx="5.38" ry="5.825"/>
		<ellipse fill="#F1083F" cx="169.934" cy="196.861" rx="5.38" ry="5.825"/>
		<ellipse fill="#F1083F" cx="181.084" cy="196.861" rx="5.38" ry="5.825"/>
		<ellipse fill="#F1083F" cx="192.234" cy="196.861" rx="5.38" ry="5.825"/>
		<ellipse fill="#F1083F" cx="203.385" cy="196.861" rx="5.379" ry="5.825"/>
		<ellipse fill="#F1083F" cx="214.535" cy="196.861" rx="5.379" ry="5.825"/>
		<ellipse fill="#F1083F" cx="225.685" cy="196.861" rx="5.38" ry="5.825"/>
		<ellipse fill="#F1083F" cx="236.835" cy="196.861" rx="5.38" ry="5.825"/>
		<ellipse fill="#F1083F" cx="247.985" cy="196.861" rx="5.38" ry="5.825"/>
		<ellipse fill="#F1083F" cx="259.135" cy="196.861" rx="5.381" ry="5.825"/>
		<ellipse fill="#F1083F" cx="270.286" cy="196.861" rx="5.38" ry="5.825"/>
		<path fill="#F1083F" d="M281.437,202.586c2.919,0,5.286-2.562,5.286-5.726c0-3.16-2.367-5.722-5.286-5.722
			c-2.921,0-5.288,2.562-5.288,5.722C276.148,200.024,278.516,202.586,281.437,202.586z"/>
		<ellipse fill="#F1083F" cx="292.586" cy="196.861" rx="4.359" ry="4.72"/>
		<ellipse fill="#F1083F" cx="303.736" cy="196.86" rx="3.339" ry="3.615"/>
		<ellipse fill="#F1083F" cx="314.887" cy="196.861" rx="2.472" ry="2.678"/>
		<ellipse fill="#F1083F" cx="326.036" cy="196.862" rx="1.794" ry="1.941"/>
		<ellipse fill="#F1083F" cx="337.187" cy="196.863" rx="1.237" ry="1.34"/>
		<ellipse fill="#F1083F" cx="348.337" cy="196.862" rx="0.804" ry="0.87"/>
		<ellipse fill="#F1083F" cx="359.487" cy="196.861" rx="0.494" ry="0.536"/>
		<ellipse fill="#F1083F" cx="370.638" cy="196.862" rx="0.278" ry="0.302"/>
		<ellipse fill="#F1083F" cx="381.786" cy="196.86" rx="0.124" ry="0.134"/>
		<ellipse fill="#F1083F" cx="392.938" cy="196.86" rx="0.062" ry="0.067"/>
		<circle fill="#F1083F" cx="404.087" cy="196.86" r="0.033"/>
		<path fill="#F1083F" d="M24.981,208.969c0.018,0,0.031-0.017,0.031-0.033c0-0.021-0.013-0.034-0.031-0.034
			c-0.016,0-0.031,0.013-0.031,0.034C24.95,208.952,24.965,208.969,24.981,208.969z"/>
		<circle fill="#F1083F" cx="36.131" cy="208.935" r="0.067"/>
		<ellipse fill="#F1083F" cx="47.282" cy="208.935" rx="0.154" ry="0.167"/>
		<ellipse fill="#F1083F" cx="58.432" cy="208.935" rx="0.278" ry="0.301"/>
		<ellipse fill="#F1083F" cx="69.583" cy="208.934" rx="0.525" ry="0.57"/>
		<path fill="#F1083F" d="M80.732,209.838c0.461,0,0.835-0.405,0.835-0.902c0-0.502-0.374-0.905-0.835-0.905
			c-0.46,0-0.835,0.403-0.835,0.905C79.897,209.433,80.271,209.838,80.732,209.838z"/>
		<ellipse fill="#F1083F" cx="91.882" cy="208.933" rx="1.299" ry="1.407"/>
		<ellipse fill="#F1083F" cx="103.033" cy="208.933" rx="1.887" ry="2.042"/>
		<ellipse fill="#F1083F" cx="114.183" cy="208.934" rx="2.627" ry="2.845"/>
		<ellipse fill="#F1083F" cx="125.333" cy="208.934" rx="3.556" ry="3.85"/>
		<ellipse fill="#F1083F" cx="136.483" cy="208.934" rx="4.669" ry="5.054"/>
		<ellipse fill="#F1083F" cx="147.634" cy="208.934" rx="5.379" ry="5.825"/>
		<ellipse fill="#F1083F" cx="158.783" cy="208.934" rx="5.38" ry="5.825"/>
		<ellipse fill="#F1083F" cx="169.934" cy="208.934" rx="5.38" ry="5.825"/>
		<ellipse fill="#F1083F" cx="181.084" cy="208.934" rx="5.38" ry="5.825"/>
		<ellipse fill="#F1083F" cx="192.234" cy="208.934" rx="5.38" ry="5.825"/>
		<ellipse fill="#F1083F" cx="203.385" cy="208.934" rx="5.379" ry="5.825"/>
		<ellipse fill="#F1083F" cx="214.535" cy="208.934" rx="5.379" ry="5.825"/>
		<ellipse fill="#F1083F" cx="225.685" cy="208.934" rx="5.38" ry="5.825"/>
		<ellipse fill="#F1083F" cx="236.835" cy="208.934" rx="5.38" ry="5.825"/>
		<ellipse fill="#F1083F" cx="247.985" cy="208.934" rx="5.38" ry="5.825"/>
		<ellipse fill="#F1083F" cx="259.135" cy="208.934" rx="5.381" ry="5.825"/>
		<ellipse fill="#F1083F" cx="270.286" cy="208.934" rx="5.38" ry="5.825"/>
		<ellipse fill="#F1083F" cx="281.437" cy="208.934" rx="5.379" ry="5.825"/>
		<ellipse fill="#F1083F" cx="292.586" cy="208.933" rx="4.762" ry="5.156"/>
		<ellipse fill="#F1083F" cx="303.736" cy="208.934" rx="3.647" ry="3.951"/>
		<ellipse fill="#F1083F" cx="314.887" cy="208.934" rx="2.69" ry="2.912"/>
		<ellipse fill="#F1083F" cx="326.036" cy="208.933" rx="1.948" ry="2.109"/>
		<ellipse fill="#F1083F" cx="337.187" cy="208.933" rx="1.33" ry="1.44"/>
		<ellipse fill="#F1083F" cx="348.337" cy="208.934" rx="0.865" ry="0.937"/>
		<ellipse fill="#F1083F" cx="359.487" cy="208.934" rx="0.525" ry="0.57"/>
		<ellipse fill="#F1083F" cx="370.638" cy="208.934" rx="0.31" ry="0.335"/>
		<ellipse fill="#F1083F" cx="381.786" cy="208.935" rx="0.154" ry="0.167"/>
		<ellipse fill="#F1083F" cx="392.938" cy="208.935" rx="0.062" ry="0.067"/>
		<path fill="#F1083F" d="M404.087,208.969c0.02,0,0.031-0.017,0.031-0.033c0-0.021-0.012-0.034-0.031-0.034
			c-0.016,0-0.03,0.013-0.03,0.034C404.057,208.952,404.071,208.969,404.087,208.969z"/>
		<circle fill="#F1083F" cx="24.981" cy="221.006" r="0.033"/>
		<circle fill="#F1083F" cx="36.131" cy="221.005" r="0.067"/>
		<ellipse fill="#F1083F" cx="47.282" cy="221.006" rx="0.154" ry="0.167"/>
		<ellipse fill="#F1083F" cx="58.432" cy="221.006" rx="0.309" ry="0.335"/>
		<ellipse fill="#F1083F" cx="69.583" cy="221.006" rx="0.556" ry="0.603"/>
		<ellipse fill="#F1083F" cx="80.732" cy="221.007" rx="0.897" ry="0.971"/>
		<ellipse fill="#F1083F" cx="91.882" cy="221.006" rx="1.361" ry="1.472"/>
		<ellipse fill="#F1083F" cx="103.033" cy="221.007" rx="2.01" ry="2.177"/>
		<ellipse fill="#F1083F" cx="114.183" cy="221.007" rx="2.783" ry="3.013"/>
		<ellipse fill="#F1083F" cx="125.333" cy="221.006" rx="3.772" ry="4.084"/>
		<ellipse fill="#F1083F" cx="136.483" cy="221.006" rx="4.916" ry="5.324"/>
		<ellipse fill="#F1083F" cx="147.634" cy="221.007" rx="5.379" ry="5.825"/>
		<ellipse fill="#F1083F" cx="158.783" cy="221.007" rx="5.38" ry="5.825"/>
		<ellipse fill="#F1083F" cx="169.934" cy="221.007" rx="5.38" ry="5.825"/>
		<ellipse fill="#F1083F" cx="181.084" cy="221.007" rx="5.38" ry="5.825"/>
		<ellipse fill="#F1083F" cx="192.234" cy="221.007" rx="5.38" ry="5.825"/>
		<ellipse fill="#F1083F" cx="203.385" cy="221.007" rx="5.379" ry="5.825"/>
		<ellipse fill="#F1083F" cx="214.535" cy="221.007" rx="5.379" ry="5.825"/>
		<ellipse fill="#F1083F" cx="225.685" cy="221.007" rx="5.38" ry="5.825"/>
		<ellipse fill="#F1083F" cx="236.835" cy="221.007" rx="5.38" ry="5.825"/>
		<ellipse fill="#F1083F" cx="247.985" cy="221.007" rx="5.38" ry="5.825"/>
		<ellipse fill="#F1083F" cx="259.135" cy="221.007" rx="5.381" ry="5.825"/>
		<ellipse fill="#F1083F" cx="270.286" cy="221.007" rx="5.38" ry="5.825"/>
		<ellipse fill="#F1083F" cx="281.437" cy="221.007" rx="5.379" ry="5.825"/>
		<ellipse fill="#F1083F" cx="292.586" cy="221.007" rx="5.009" ry="5.424"/>
		<ellipse fill="#F1083F" cx="303.736" cy="221.007" rx="3.863" ry="4.185"/>
		<ellipse fill="#F1083F" cx="314.887" cy="221.007" rx="2.845" ry="3.079"/>
		<ellipse fill="#F1083F" cx="326.036" cy="221.007" rx="2.043" ry="2.21"/>
		<ellipse fill="#F1083F" cx="337.187" cy="221.007" rx="1.423" ry="1.539"/>
		<ellipse fill="#F1083F" cx="348.337" cy="221.007" rx="0.927" ry="1.004"/>
		<ellipse fill="#F1083F" cx="359.487" cy="221.006" rx="0.557" ry="0.603"/>
		<ellipse fill="#F1083F" cx="370.638" cy="221.007" rx="0.34" ry="0.369"/>
		<ellipse fill="#F1083F" cx="381.786" cy="221.006" rx="0.154" ry="0.167"/>
		<ellipse fill="#F1083F" cx="392.938" cy="221.005" rx="0.062" ry="0.067"/>
		<circle fill="#F1083F" cx="404.087" cy="221.006" r="0.033"/>
		<circle fill="#F1083F" cx="24.981" cy="233.078" r="0.033"/>
		<circle fill="#F1083F" cx="36.131" cy="233.079" r="0.067"/>
		<ellipse fill="#F1083F" cx="47.282" cy="233.078" rx="0.154" ry="0.167"/>
		<ellipse fill="#F1083F" cx="58.432" cy="233.08" rx="0.309" ry="0.335"/>
		<ellipse fill="#F1083F" cx="69.583" cy="233.08" rx="0.556" ry="0.603"/>
		<ellipse fill="#F1083F" cx="80.732" cy="233.079" rx="0.928" ry="1.004"/>
		<ellipse fill="#F1083F" cx="91.882" cy="233.078" rx="1.392" ry="1.507"/>
		<ellipse fill="#F1083F" cx="103.033" cy="233.079" rx="2.041" ry="2.21"/>
		<ellipse fill="#F1083F" cx="114.183" cy="233.079" rx="2.845" ry="3.079"/>
		<ellipse fill="#F1083F" cx="125.333" cy="233.079" rx="3.834" ry="4.151"/>
		<ellipse fill="#F1083F" cx="136.483" cy="233.078" rx="5.009" ry="5.423"/>
		<ellipse fill="#F1083F" cx="147.634" cy="233.079" rx="5.379" ry="5.825"/>
		<ellipse fill="#F1083F" cx="158.783" cy="233.079" rx="5.38" ry="5.825"/>
		<ellipse fill="#F1083F" cx="169.934" cy="233.079" rx="5.38" ry="5.825"/>
		<ellipse fill="#F1083F" cx="181.084" cy="233.079" rx="5.38" ry="5.825"/>
		<ellipse fill="#F1083F" cx="192.234" cy="233.079" rx="5.38" ry="5.825"/>
		<ellipse fill="#F1083F" cx="203.385" cy="233.079" rx="5.379" ry="5.825"/>
		<ellipse fill="#F1083F" cx="214.535" cy="233.079" rx="5.379" ry="5.825"/>
		<ellipse fill="#F1083F" cx="225.685" cy="233.079" rx="5.38" ry="5.825"/>
		<ellipse fill="#F1083F" cx="236.835" cy="233.079" rx="5.38" ry="5.825"/>
		<ellipse fill="#F1083F" cx="247.985" cy="233.079" rx="5.38" ry="5.825"/>
		<ellipse fill="#F1083F" cx="259.135" cy="233.079" rx="5.381" ry="5.825"/>
		<ellipse fill="#F1083F" cx="270.286" cy="233.079" rx="5.38" ry="5.825"/>
		<ellipse fill="#F1083F" cx="281.437" cy="233.079" rx="5.379" ry="5.825"/>
		<ellipse fill="#F1083F" cx="292.586" cy="233.079" rx="5.071" ry="5.49"/>
		<ellipse fill="#F1083F" cx="303.736" cy="233.08" rx="3.926" ry="4.251"/>
		<ellipse fill="#F1083F" cx="314.887" cy="233.08" rx="2.906" ry="3.146"/>
		<ellipse fill="#F1083F" cx="326.036" cy="233.08" rx="2.104" ry="2.277"/>
		<ellipse fill="#F1083F" cx="337.187" cy="233.079" rx="1.454" ry="1.574"/>
		<ellipse fill="#F1083F" cx="348.337" cy="233.08" rx="0.958" ry="1.038"/>
		<ellipse fill="#F1083F" cx="359.487" cy="233.08" rx="0.587" ry="0.636"/>
		<ellipse fill="#F1083F" cx="370.638" cy="233.08" rx="0.34" ry="0.369"/>
		<path fill="#F1083F" d="M381.786,233.281c0.104,0,0.188-0.092,0.188-0.203c0-0.11-0.083-0.2-0.188-0.2
			c-0.101,0-0.185,0.09-0.185,0.2C381.602,233.189,381.686,233.281,381.786,233.281z"/>
		<ellipse fill="#F1083F" cx="392.938" cy="233.079" rx="0.062" ry="0.067"/>
		<circle fill="#F1083F" cx="404.087" cy="233.078" r="0.033"/>
		<circle fill="#F1083F" cx="24.981" cy="245.151" r="0.034"/>
		<circle fill="#F1083F" cx="36.131" cy="245.151" r="0.067"/>
		<ellipse fill="#F1083F" cx="47.282" cy="245.151" rx="0.154" ry="0.167"/>
		<ellipse fill="#F1083F" cx="58.432" cy="245.151" rx="0.309" ry="0.334"/>
		<ellipse fill="#F1083F" cx="69.583" cy="245.152" rx="0.556" ry="0.603"/>
		<ellipse fill="#F1083F" cx="80.732" cy="245.152" rx="0.897" ry="0.971"/>
		<ellipse fill="#F1083F" cx="91.882" cy="245.151" rx="1.361" ry="1.473"/>
		<ellipse fill="#F1083F" cx="103.033" cy="245.152" rx="2.01" ry="2.176"/>
		<ellipse fill="#F1083F" cx="114.183" cy="245.151" rx="2.783" ry="3.013"/>
		<ellipse fill="#F1083F" cx="125.333" cy="245.152" rx="3.772" ry="4.084"/>
		<ellipse fill="#F1083F" cx="136.483" cy="245.151" rx="4.947" ry="5.356"/>
		<ellipse fill="#F1083F" cx="147.634" cy="245.152" rx="5.379" ry="5.825"/>
		<ellipse fill="#F1083F" cx="158.783" cy="245.152" rx="5.38" ry="5.825"/>
		<ellipse fill="#F1083F" cx="169.934" cy="245.152" rx="5.38" ry="5.825"/>
		<ellipse fill="#F1083F" cx="181.084" cy="245.152" rx="5.38" ry="5.825"/>
		<ellipse fill="#F1083F" cx="192.234" cy="245.152" rx="5.38" ry="5.825"/>
		<ellipse fill="#F1083F" cx="203.385" cy="245.152" rx="5.379" ry="5.825"/>
		<ellipse fill="#F1083F" cx="214.535" cy="245.152" rx="5.379" ry="5.825"/>
		<ellipse fill="#F1083F" cx="225.685" cy="245.152" rx="5.38" ry="5.825"/>
		<ellipse fill="#F1083F" cx="236.835" cy="245.152" rx="5.38" ry="5.825"/>
		<ellipse fill="#F1083F" cx="247.985" cy="245.152" rx="5.38" ry="5.825"/>
		<ellipse fill="#F1083F" cx="259.135" cy="245.152" rx="5.381" ry="5.825"/>
		<ellipse fill="#F1083F" cx="270.286" cy="245.152" rx="5.38" ry="5.825"/>
		<ellipse fill="#F1083F" cx="281.437" cy="245.152" rx="5.379" ry="5.825"/>
		<ellipse fill="#F1083F" cx="292.586" cy="245.151" rx="5.009" ry="5.423"/>
		<ellipse fill="#F1083F" cx="303.736" cy="245.152" rx="3.863" ry="4.185"/>
		<ellipse fill="#F1083F" cx="314.887" cy="245.151" rx="2.875" ry="3.114"/>
		<ellipse fill="#F1083F" cx="326.036" cy="245.152" rx="2.073" ry="2.244"/>
		<ellipse fill="#F1083F" cx="337.187" cy="245.151" rx="1.423" ry="1.541"/>
		<ellipse fill="#F1083F" cx="348.337" cy="245.152" rx="0.927" ry="1.004"/>
		<ellipse fill="#F1083F" cx="359.487" cy="245.152" rx="0.557" ry="0.603"/>
		<ellipse fill="#F1083F" cx="370.638" cy="245.151" rx="0.34" ry="0.368"/>
		<ellipse fill="#F1083F" cx="381.786" cy="245.151" rx="0.154" ry="0.167"/>
		<ellipse fill="#F1083F" cx="392.938" cy="245.151" rx="0.062" ry="0.067"/>
		<circle fill="#F1083F" cx="404.087" cy="245.151" r="0.034"/>
		<circle fill="#F1083F" cx="24.981" cy="257.224" r="0.033"/>
		<circle fill="#F1083F" cx="36.131" cy="257.223" r="0.067"/>
		<ellipse fill="#F1083F" cx="47.282" cy="257.224" rx="0.154" ry="0.167"/>
		<ellipse fill="#F1083F" cx="58.432" cy="257.224" rx="0.278" ry="0.301"/>
		<ellipse fill="#F1083F" cx="69.583" cy="257.225" rx="0.525" ry="0.569"/>
		<ellipse fill="#F1083F" cx="80.732" cy="257.225" rx="0.867" ry="0.938"/>
		<ellipse fill="#F1083F" cx="91.882" cy="257.224" rx="1.299" ry="1.406"/>
		<ellipse fill="#F1083F" cx="103.033" cy="257.224" rx="1.887" ry="2.042"/>
		<ellipse fill="#F1083F" cx="114.183" cy="257.225" rx="2.659" ry="2.879"/>
		<ellipse fill="#F1083F" cx="125.333" cy="257.224" rx="3.586" ry="3.883"/>
		<ellipse fill="#F1083F" cx="136.483" cy="257.224" rx="4.699" ry="5.089"/>
		<ellipse fill="#F1083F" cx="147.634" cy="257.224" rx="5.379" ry="5.824"/>
		<ellipse fill="#F1083F" cx="158.783" cy="257.224" rx="5.38" ry="5.824"/>
		<ellipse fill="#F1083F" cx="169.934" cy="257.224" rx="5.38" ry="5.824"/>
		<ellipse fill="#F1083F" cx="181.084" cy="257.224" rx="5.38" ry="5.824"/>
		<ellipse fill="#F1083F" cx="192.234" cy="257.224" rx="5.38" ry="5.824"/>
		<ellipse fill="#F1083F" cx="203.385" cy="257.224" rx="5.379" ry="5.824"/>
		<ellipse fill="#F1083F" cx="214.535" cy="257.224" rx="5.379" ry="5.824"/>
		<ellipse fill="#F1083F" cx="225.685" cy="257.224" rx="5.38" ry="5.824"/>
		<ellipse fill="#F1083F" cx="236.835" cy="257.224" rx="5.38" ry="5.824"/>
		<ellipse fill="#F1083F" cx="247.985" cy="257.224" rx="5.38" ry="5.824"/>
		<ellipse fill="#F1083F" cx="259.135" cy="257.224" rx="5.381" ry="5.824"/>
		<ellipse fill="#F1083F" cx="270.286" cy="257.224" rx="5.38" ry="5.824"/>
		<ellipse fill="#F1083F" cx="281.437" cy="257.224" rx="5.379" ry="5.824"/>
		<ellipse fill="#F1083F" cx="292.586" cy="257.224" rx="4.792" ry="5.188"/>
		<ellipse fill="#F1083F" cx="303.736" cy="257.225" rx="3.679" ry="3.984"/>
		<ellipse fill="#F1083F" cx="314.887" cy="257.225" rx="2.721" ry="2.945"/>
		<ellipse fill="#F1083F" cx="326.036" cy="257.224" rx="1.948" ry="2.108"/>
		<ellipse fill="#F1083F" cx="337.187" cy="257.224" rx="1.361" ry="1.474"/>
		<ellipse fill="#F1083F" cx="348.337" cy="257.225" rx="0.865" ry="0.938"/>
		<ellipse fill="#F1083F" cx="359.487" cy="257.225" rx="0.525" ry="0.569"/>
		<ellipse fill="#F1083F" cx="370.638" cy="257.224" rx="0.31" ry="0.334"/>
		<ellipse fill="#F1083F" cx="381.786" cy="257.224" rx="0.154" ry="0.167"/>
		<ellipse fill="#F1083F" cx="392.938" cy="257.223" rx="0.062" ry="0.067"/>
		<circle fill="#F1083F" cx="404.087" cy="257.224" r="0.033"/>
		<circle fill="#F1083F" cx="24.981" cy="269.296" r="0.034"/>
		<circle fill="#F1083F" cx="36.131" cy="269.296" r="0.067"/>
		<ellipse fill="#F1083F" cx="47.282" cy="269.296" rx="0.124" ry="0.134"/>
		<ellipse fill="#F1083F" cx="58.432" cy="269.296" rx="0.247" ry="0.268"/>
		<ellipse fill="#F1083F" cx="69.583" cy="269.296" rx="0.463" ry="0.501"/>
		<ellipse fill="#F1083F" cx="80.732" cy="269.297" rx="0.773" ry="0.837"/>
		<ellipse fill="#F1083F" cx="91.882" cy="269.296" rx="1.206" ry="1.306"/>
		<ellipse fill="#F1083F" cx="103.033" cy="269.296" rx="1.731" ry="1.875"/>
		<ellipse fill="#F1083F" cx="114.183" cy="269.296" rx="2.442" ry="2.646"/>
		<ellipse fill="#F1083F" cx="125.333" cy="269.296" rx="3.277" ry="3.548"/>
		<ellipse fill="#F1083F" cx="136.483" cy="269.296" rx="4.298" ry="4.654"/>
		<ellipse fill="#F1083F" cx="147.634" cy="269.296" rx="5.256" ry="5.69"/>
		<ellipse fill="#F1083F" cx="158.783" cy="269.296" rx="5.38" ry="5.824"/>
		<ellipse fill="#F1083F" cx="169.934" cy="269.296" rx="5.38" ry="5.824"/>
		<ellipse fill="#F1083F" cx="181.084" cy="269.296" rx="5.38" ry="5.824"/>
		<ellipse fill="#F1083F" cx="192.234" cy="269.296" rx="5.38" ry="5.824"/>
		<ellipse fill="#F1083F" cx="203.385" cy="269.296" rx="5.379" ry="5.824"/>
		<ellipse fill="#F1083F" cx="214.535" cy="269.296" rx="5.379" ry="5.824"/>
		<ellipse fill="#F1083F" cx="225.685" cy="269.296" rx="5.38" ry="5.824"/>
		<ellipse fill="#F1083F" cx="236.835" cy="269.296" rx="5.38" ry="5.824"/>
		<ellipse fill="#F1083F" cx="247.985" cy="269.296" rx="5.38" ry="5.824"/>
		<ellipse fill="#F1083F" cx="259.135" cy="269.296" rx="5.381" ry="5.824"/>
		<ellipse fill="#F1083F" cx="270.286" cy="269.296" rx="5.38" ry="5.824"/>
		<ellipse fill="#F1083F" cx="281.437" cy="269.296" rx="5.286" ry="5.724"/>
		<ellipse fill="#F1083F" cx="292.586" cy="269.296" rx="4.391" ry="4.754"/>
		<ellipse fill="#F1083F" cx="303.736" cy="269.296" rx="3.369" ry="3.649"/>
		<ellipse fill="#F1083F" cx="314.887" cy="269.296" rx="2.503" ry="2.712"/>
		<ellipse fill="#F1083F" cx="326.036" cy="269.296" rx="1.794" ry="1.941"/>
		<ellipse fill="#F1083F" cx="337.187" cy="269.296" rx="1.237" ry="1.339"/>
		<ellipse fill="#F1083F" cx="348.337" cy="269.297" rx="0.804" ry="0.871"/>
		<ellipse fill="#F1083F" cx="359.487" cy="269.296" rx="0.494" ry="0.535"/>
		<ellipse fill="#F1083F" cx="370.638" cy="269.296" rx="0.278" ry="0.301"/>
		<ellipse fill="#F1083F" cx="381.786" cy="269.296" rx="0.124" ry="0.134"/>
		<ellipse fill="#F1083F" cx="392.938" cy="269.296" rx="0.062" ry="0.067"/>
		<circle fill="#F1083F" cx="404.087" cy="269.296" r="0.034"/>
		<circle fill="#F1083F" cx="36.131" cy="281.369" r="0.033"/>
		<ellipse fill="#F1083F" cx="47.282" cy="281.369" rx="0.093" ry="0.1"/>
		<ellipse fill="#F1083F" cx="58.432" cy="281.369" rx="0.216" ry="0.234"/>
		<ellipse fill="#F1083F" cx="69.583" cy="281.369" rx="0.401" ry="0.435"/>
		<ellipse fill="#F1083F" cx="80.732" cy="281.37" rx="0.68" ry="0.736"/>
		<ellipse fill="#F1083F" cx="91.882" cy="281.369" rx="1.052" ry="1.139"/>
		<ellipse fill="#F1083F" cx="103.033" cy="281.369" rx="1.546" ry="1.674"/>
		<ellipse fill="#F1083F" cx="114.183" cy="281.369" rx="2.165" ry="2.343"/>
		<ellipse fill="#F1083F" cx="125.333" cy="281.369" rx="2.907" ry="3.147"/>
		<ellipse fill="#F1083F" cx="136.483" cy="281.369" rx="3.804" ry="4.117"/>
		<ellipse fill="#F1083F" cx="147.634" cy="281.369" rx="4.792" ry="5.189"/>
		<ellipse fill="#F1083F" cx="158.783" cy="281.369" rx="5.38" ry="5.824"/>
		<ellipse fill="#F1083F" cx="169.934" cy="281.369" rx="5.38" ry="5.824"/>
		<ellipse fill="#F1083F" cx="181.084" cy="281.369" rx="5.38" ry="5.824"/>
		<ellipse fill="#F1083F" cx="192.234" cy="281.369" rx="5.38" ry="5.824"/>
		<ellipse fill="#F1083F" cx="203.385" cy="281.369" rx="5.379" ry="5.824"/>
		<ellipse fill="#F1083F" cx="214.535" cy="281.369" rx="5.379" ry="5.824"/>
		<ellipse fill="#F1083F" cx="225.685" cy="281.369" rx="5.38" ry="5.824"/>
		<ellipse fill="#F1083F" cx="236.835" cy="281.369" rx="5.38" ry="5.824"/>
		<ellipse fill="#F1083F" cx="247.985" cy="281.369" rx="5.38" ry="5.824"/>
		<ellipse fill="#F1083F" cx="259.135" cy="281.369" rx="5.381" ry="5.824"/>
		<ellipse fill="#F1083F" cx="270.286" cy="281.369" rx="5.38" ry="5.824"/>
		<ellipse fill="#F1083F" cx="281.437" cy="281.369" rx="4.885" ry="5.289"/>
		<ellipse fill="#F1083F" cx="292.586" cy="281.369" rx="3.864" ry="4.184"/>
		<ellipse fill="#F1083F" cx="303.736" cy="281.369" rx="2.968" ry="3.214"/>
		<ellipse fill="#F1083F" cx="314.887" cy="281.369" rx="2.225" ry="2.41"/>
		<ellipse fill="#F1083F" cx="326.036" cy="281.369" rx="1.577" ry="1.708"/>
		<ellipse fill="#F1083F" cx="337.187" cy="281.369" rx="1.083" ry="1.172"/>
		<ellipse fill="#F1083F" cx="348.337" cy="281.37" rx="0.711" ry="0.77"/>
		<ellipse fill="#F1083F" cx="359.487" cy="281.369" rx="0.433" ry="0.468"/>
		<ellipse fill="#F1083F" cx="370.638" cy="281.369" rx="0.217" ry="0.234"/>
		<ellipse fill="#F1083F" cx="381.786" cy="281.369" rx="0.093" ry="0.1"/>
		<circle fill="#F1083F" cx="392.938" cy="281.369" r="0.033"/>
		<circle fill="#F1083F" cx="36.131" cy="293.441" r="0.033"/>
		<ellipse fill="#F1083F" cx="47.282" cy="293.441" rx="0.093" ry="0.101"/>
		<ellipse fill="#F1083F" cx="58.432" cy="293.442" rx="0.185" ry="0.201"/>
		<ellipse fill="#F1083F" cx="69.583" cy="293.442" rx="0.34" ry="0.368"/>
		<ellipse fill="#F1083F" cx="80.732" cy="293.441" rx="0.557" ry="0.602"/>
		<ellipse fill="#F1083F" cx="91.882" cy="293.44" rx="0.896" ry="0.971"/>
		<ellipse fill="#F1083F" cx="103.033" cy="293.441" rx="1.299" ry="1.406"/>
		<ellipse fill="#F1083F" cx="114.183" cy="293.442" rx="1.854" ry="2.008"/>
		<ellipse fill="#F1083F" cx="125.333" cy="293.442" rx="2.504" ry="2.712"/>
		<ellipse fill="#F1083F" cx="136.483" cy="293.442" rx="3.247" ry="3.515"/>
		<ellipse fill="#F1083F" cx="147.634" cy="293.441" rx="4.082" ry="4.418"/>
		<ellipse fill="#F1083F" cx="158.783" cy="293.441" rx="4.979" ry="5.39"/>
		<ellipse fill="#F1083F" cx="169.934" cy="293.441" rx="5.38" ry="5.824"/>
		<ellipse fill="#F1083F" cx="181.084" cy="293.441" rx="5.38" ry="5.824"/>
		<ellipse fill="#F1083F" cx="192.234" cy="293.441" rx="5.38" ry="5.824"/>
		<ellipse fill="#F1083F" cx="203.385" cy="293.441" rx="5.379" ry="5.824"/>
		<ellipse fill="#F1083F" cx="214.535" cy="293.441" rx="5.379" ry="5.824"/>
		<ellipse fill="#F1083F" cx="225.685" cy="293.441" rx="5.38" ry="5.824"/>
		<ellipse fill="#F1083F" cx="236.835" cy="293.441" rx="5.38" ry="5.824"/>
		<ellipse fill="#F1083F" cx="247.985" cy="293.441" rx="5.38" ry="5.824"/>
		<ellipse fill="#F1083F" cx="259.135" cy="293.441" rx="5.381" ry="5.824"/>
		<ellipse fill="#F1083F" cx="270.286" cy="293.441" rx="5.009" ry="5.423"/>
		<ellipse fill="#F1083F" cx="281.437" cy="293.44" rx="4.174" ry="4.52"/>
		<ellipse fill="#F1083F" cx="292.586" cy="293.441" rx="3.309" ry="3.582"/>
		<ellipse fill="#F1083F" cx="303.736" cy="293.441" rx="2.536" ry="2.746"/>
		<ellipse fill="#F1083F" cx="314.887" cy="293.441" rx="1.885" ry="2.042"/>
		<ellipse fill="#F1083F" cx="326.036" cy="293.442" rx="1.361" ry="1.473"/>
		<ellipse fill="#F1083F" cx="337.187" cy="293.441" rx="0.929" ry="1.005"/>
		<ellipse fill="#F1083F" cx="348.337" cy="293.442" rx="0.587" ry="0.635"/>
		<ellipse fill="#F1083F" cx="359.487" cy="293.442" rx="0.34" ry="0.368"/>
		<ellipse fill="#F1083F" cx="370.638" cy="293.442" rx="0.186" ry="0.201"/>
		<ellipse fill="#F1083F" cx="381.786" cy="293.441" rx="0.093" ry="0.101"/>
		<circle fill="#F1083F" cx="392.938" cy="293.441" r="0.033"/>
		<circle fill="#F1083F" cx="36.131" cy="305.514" r="0.034"/>
		<circle fill="#F1083F" cx="47.282" cy="305.514" r="0.067"/>
		<ellipse fill="#F1083F" cx="58.432" cy="305.515" rx="0.124" ry="0.134"/>
		<ellipse fill="#F1083F" cx="69.583" cy="305.514" rx="0.247" ry="0.267"/>
		<ellipse fill="#F1083F" cx="80.732" cy="305.514" rx="0.464" ry="0.501"/>
		<ellipse fill="#F1083F" cx="91.882" cy="305.513" rx="0.711" ry="0.77"/>
		<ellipse fill="#F1083F" cx="103.033" cy="305.514" rx="1.082" ry="1.172"/>
		<ellipse fill="#F1083F" cx="114.183" cy="305.514" rx="1.515" ry="1.64"/>
		<ellipse fill="#F1083F" cx="125.333" cy="305.514" rx="2.071" ry="2.243"/>
		<ellipse fill="#F1083F" cx="136.483" cy="305.513" rx="2.69" ry="2.912"/>
		<ellipse fill="#F1083F" cx="147.634" cy="305.514" rx="3.37" ry="3.649"/>
		<ellipse fill="#F1083F" cx="158.783" cy="305.514" rx="4.112" ry="4.454"/>
		<ellipse fill="#F1083F" cx="169.934" cy="305.514" rx="4.823" ry="5.222"/>
		<ellipse fill="#F1083F" cx="181.084" cy="305.514" rx="5.288" ry="5.724"/>
		<ellipse fill="#F1083F" cx="192.234" cy="305.515" rx="5.38" ry="5.824"/>
		<ellipse fill="#F1083F" cx="203.385" cy="305.515" rx="5.379" ry="5.824"/>
		<ellipse fill="#F1083F" cx="214.535" cy="305.515" rx="5.379" ry="5.824"/>
		<ellipse fill="#F1083F" cx="225.685" cy="305.515" rx="5.38" ry="5.824"/>
		<ellipse fill="#F1083F" cx="236.835" cy="305.515" rx="5.38" ry="5.824"/>
		<ellipse fill="#F1083F" cx="247.985" cy="305.514" rx="5.287" ry="5.724"/>
		<ellipse fill="#F1083F" cx="259.135" cy="305.514" rx="4.886" ry="5.29"/>
		<ellipse fill="#F1083F" cx="270.286" cy="305.514" rx="4.174" ry="4.52"/>
		<ellipse fill="#F1083F" cx="281.437" cy="305.514" rx="3.432" ry="3.715"/>
		<ellipse fill="#F1083F" cx="292.586" cy="305.514" rx="2.721" ry="2.947"/>
		<ellipse fill="#F1083F" cx="303.736" cy="305.514" rx="2.104" ry="2.276"/>
		<ellipse fill="#F1083F" cx="314.887" cy="305.514" rx="1.546" ry="1.674"/>
		<ellipse fill="#F1083F" cx="326.036" cy="305.514" rx="1.112" ry="1.206"/>
		<ellipse fill="#F1083F" cx="337.187" cy="305.513" rx="0.743" ry="0.803"/>
		<ellipse fill="#F1083F" cx="348.337" cy="305.514" rx="0.464" ry="0.501"/>
		<ellipse fill="#F1083F" cx="359.487" cy="305.514" rx="0.278" ry="0.301"/>
		<ellipse fill="#F1083F" cx="370.638" cy="305.514" rx="0.154" ry="0.167"/>
		<ellipse fill="#F1083F" cx="381.786" cy="305.514" rx="0.062" ry="0.067"/>
		<circle fill="#F1083F" cx="392.938" cy="305.514" r="0.034"/>
		<circle fill="#F1083F" cx="47.282" cy="317.587" r="0.033"/>
		<ellipse fill="#F1083F" cx="58.432" cy="317.587" rx="0.093" ry="0.101"/>
		<ellipse fill="#F1083F" cx="69.583" cy="317.587" rx="0.185" ry="0.2"/>
		<ellipse fill="#F1083F" cx="80.732" cy="317.587" rx="0.34" ry="0.368"/>
		<ellipse fill="#F1083F" cx="91.882" cy="317.586" rx="0.557" ry="0.603"/>
		<ellipse fill="#F1083F" cx="103.033" cy="317.585" rx="0.834" ry="0.904"/>
		<ellipse fill="#F1083F" cx="114.183" cy="317.586" rx="1.205" ry="1.306"/>
		<ellipse fill="#F1083F" cx="125.333" cy="317.587" rx="1.639" ry="1.774"/>
		<ellipse fill="#F1083F" cx="136.483" cy="317.586" rx="2.133" ry="2.311"/>
		<ellipse fill="#F1083F" cx="147.634" cy="317.587" rx="2.69" ry="2.913"/>
		<ellipse fill="#F1083F" cx="158.783" cy="317.587" rx="3.247" ry="3.515"/>
		<ellipse fill="#F1083F" cx="169.934" cy="317.587" rx="3.834" ry="4.15"/>
		<ellipse fill="#F1083F" cx="181.084" cy="317.586" rx="4.359" ry="4.72"/>
		<ellipse fill="#F1083F" cx="192.234" cy="317.587" rx="4.762" ry="5.155"/>
		<ellipse fill="#F1083F" cx="203.385" cy="317.587" rx="5.009" ry="5.423"/>
		<ellipse fill="#F1083F" cx="214.535" cy="317.587" rx="5.07" ry="5.49"/>
		<ellipse fill="#F1083F" cx="225.685" cy="317.587" rx="5.01" ry="5.423"/>
		<ellipse fill="#F1083F" cx="236.835" cy="317.586" rx="4.792" ry="5.189"/>
		<ellipse fill="#F1083F" cx="247.985" cy="317.586" rx="4.39" ry="4.753"/>
		<ellipse fill="#F1083F" cx="259.135" cy="317.586" rx="3.865" ry="4.185"/>
		<ellipse fill="#F1083F" cx="270.286" cy="317.587" rx="3.308" ry="3.582"/>
		<ellipse fill="#F1083F" cx="281.437" cy="317.586" rx="2.72" ry="2.945"/>
		<ellipse fill="#F1083F" cx="292.586" cy="317.586" rx="2.164" ry="2.344"/>
		<ellipse fill="#F1083F" cx="303.736" cy="317.587" rx="1.669" ry="1.808"/>
		<ellipse fill="#F1083F" cx="314.887" cy="317.586" rx="1.236" ry="1.339"/>
		<ellipse fill="#F1083F" cx="326.036" cy="317.586" rx="0.865" ry="0.938"/>
		<ellipse fill="#F1083F" cx="337.187" cy="317.586" rx="0.587" ry="0.635"/>
		<ellipse fill="#F1083F" cx="348.337" cy="317.587" rx="0.34" ry="0.368"/>
		<ellipse fill="#F1083F" cx="359.487" cy="317.587" rx="0.186" ry="0.2"/>
		<ellipse fill="#F1083F" cx="370.638" cy="317.587" rx="0.093" ry="0.101"/>
		<circle fill="#F1083F" cx="381.786" cy="317.587" r="0.033"/>
		<circle fill="#F1083F" cx="47.282" cy="329.66" r="0.034"/>
		<ellipse fill="#F1083F" cx="58.432" cy="329.66" rx="0.062" ry="0.067"/>
		<ellipse fill="#F1083F" cx="69.583" cy="329.659" rx="0.124" ry="0.134"/>
		<ellipse fill="#F1083F" cx="80.732" cy="329.659" rx="0.248" ry="0.268"/>
		<ellipse fill="#F1083F" cx="91.882" cy="329.658" rx="0.402" ry="0.436"/>
		<ellipse fill="#F1083F" cx="103.033" cy="329.658" rx="0.619" ry="0.67"/>
		<ellipse fill="#F1083F" cx="114.183" cy="329.659" rx="0.927" ry="1.004"/>
		<ellipse fill="#F1083F" cx="125.333" cy="329.66" rx="1.236" ry="1.339"/>
		<ellipse fill="#F1083F" cx="136.483" cy="329.66" rx="1.639" ry="1.774"/>
		<ellipse fill="#F1083F" cx="147.634" cy="329.658" rx="2.071" ry="2.243"/>
		<ellipse fill="#F1083F" cx="158.783" cy="329.659" rx="2.505" ry="2.711"/>
		<ellipse fill="#F1083F" cx="169.934" cy="329.658" rx="2.938" ry="3.18"/>
		<ellipse fill="#F1083F" cx="181.084" cy="329.659" rx="3.339" ry="3.615"/>
		<ellipse fill="#F1083F" cx="192.234" cy="329.659" rx="3.649" ry="3.951"/>
		<ellipse fill="#F1083F" cx="203.385" cy="329.658" rx="3.865" ry="4.185"/>
		<ellipse fill="#F1083F" cx="214.535" cy="329.659" rx="3.926" ry="4.251"/>
		<ellipse fill="#F1083F" cx="225.685" cy="329.658" rx="3.865" ry="4.185"/>
		<ellipse fill="#F1083F" cx="236.835" cy="329.658" rx="3.68" ry="3.984"/>
		<ellipse fill="#F1083F" cx="247.985" cy="329.66" rx="3.37" ry="3.649"/>
		<ellipse fill="#F1083F" cx="259.135" cy="329.658" rx="2.969" ry="3.213"/>
		<ellipse fill="#F1083F" cx="270.286" cy="329.658" rx="2.535" ry="2.745"/>
		<ellipse fill="#F1083F" cx="281.437" cy="329.659" rx="2.102" ry="2.277"/>
		<ellipse fill="#F1083F" cx="292.586" cy="329.659" rx="1.67" ry="1.808"/>
		<ellipse fill="#F1083F" cx="303.736" cy="329.659" rx="1.268" ry="1.373"/>
		<ellipse fill="#F1083F" cx="314.887" cy="329.659" rx="0.928" ry="1.004"/>
		<ellipse fill="#F1083F" cx="326.036" cy="329.658" rx="0.649" ry="0.703"/>
		<ellipse fill="#F1083F" cx="337.187" cy="329.659" rx="0.433" ry="0.469"/>
		<ellipse fill="#F1083F" cx="348.337" cy="329.659" rx="0.247" ry="0.268"/>
		<ellipse fill="#F1083F" cx="359.487" cy="329.659" rx="0.124" ry="0.134"/>
		<circle fill="#F1083F" cx="370.638" cy="329.66" r="0.067"/>
		<circle fill="#F1083F" cx="381.786" cy="329.66" r="0.034"/>
		<circle fill="#F1083F" cx="58.432" cy="341.732" r="0.034"/>
		<ellipse fill="#F1083F" cx="69.583" cy="341.732" rx="0.093" ry="0.1"/>
		<ellipse fill="#F1083F" cx="80.732" cy="341.732" rx="0.155" ry="0.167"/>
		<ellipse fill="#F1083F" cx="91.882" cy="341.731" rx="0.279" ry="0.302"/>
		<ellipse fill="#F1083F" cx="103.033" cy="341.731" rx="0.433" ry="0.469"/>
		<ellipse fill="#F1083F" cx="114.183" cy="341.731" rx="0.649" ry="0.703"/>
		<ellipse fill="#F1083F" cx="125.333" cy="341.731" rx="0.928" ry="1.004"/>
		<ellipse fill="#F1083F" cx="136.483" cy="341.731" rx="1.206" ry="1.305"/>
		<ellipse fill="#F1083F" cx="147.634" cy="341.731" rx="1.545" ry="1.673"/>
		<ellipse fill="#F1083F" cx="158.783" cy="341.731" rx="1.856" ry="2.009"/>
		<ellipse fill="#F1083F" cx="169.934" cy="341.731" rx="2.196" ry="2.377"/>
		<ellipse fill="#F1083F" cx="181.084" cy="341.731" rx="2.474" ry="2.678"/>
		<ellipse fill="#F1083F" cx="192.234" cy="341.731" rx="2.689" ry="2.912"/>
		<ellipse fill="#F1083F" cx="203.385" cy="341.731" rx="2.844" ry="3.08"/>
		<ellipse fill="#F1083F" cx="214.535" cy="341.732" rx="2.906" ry="3.147"/>
		<ellipse fill="#F1083F" cx="225.685" cy="341.731" rx="2.876" ry="3.113"/>
		<ellipse fill="#F1083F" cx="236.835" cy="341.731" rx="2.722" ry="2.946"/>
		<ellipse fill="#F1083F" cx="247.985" cy="341.731" rx="2.504" ry="2.711"/>
		<ellipse fill="#F1083F" cx="259.135" cy="341.731" rx="2.227" ry="2.411"/>
		<ellipse fill="#F1083F" cx="270.286" cy="341.731" rx="1.886" ry="2.042"/>
		<ellipse fill="#F1083F" cx="281.437" cy="341.731" rx="1.546" ry="1.673"/>
		<ellipse fill="#F1083F" cx="292.586" cy="341.731" rx="1.236" ry="1.338"/>
		<ellipse fill="#F1083F" cx="303.736" cy="341.731" rx="0.928" ry="1.004"/>
		<ellipse fill="#F1083F" cx="314.887" cy="341.731" rx="0.681" ry="0.737"/>
		<ellipse fill="#F1083F" cx="326.036" cy="341.731" rx="0.464" ry="0.502"/>
		<ellipse fill="#F1083F" cx="337.187" cy="341.731" rx="0.278" ry="0.302"/>
		<ellipse fill="#F1083F" cx="348.337" cy="341.732" rx="0.186" ry="0.201"/>
		<ellipse fill="#F1083F" cx="359.487" cy="341.732" rx="0.093" ry="0.1"/>
		<circle fill="#F1083F" cx="370.638" cy="341.732" r="0.034"/>
		<circle fill="#F1083F" cx="58.432" cy="353.803" r="0.033"/>
		<circle fill="#F1083F" cx="69.583" cy="353.803" r="0.033"/>
		<ellipse fill="#F1083F" cx="80.732" cy="353.804" rx="0.094" ry="0.102"/>
		<ellipse fill="#F1083F" cx="91.882" cy="353.804" rx="0.185" ry="0.202"/>
		<ellipse fill="#F1083F" cx="103.033" cy="353.804" rx="0.309" ry="0.335"/>
		<ellipse fill="#F1083F" cx="114.183" cy="353.804" rx="0.432" ry="0.469"/>
		<ellipse fill="#F1083F" cx="125.333" cy="353.804" rx="0.65" ry="0.703"/>
		<ellipse fill="#F1083F" cx="136.483" cy="353.804" rx="0.866" ry="0.938"/>
		<ellipse fill="#F1083F" cx="147.634" cy="353.804" rx="1.082" ry="1.171"/>
		<ellipse fill="#F1083F" cx="158.783" cy="353.804" rx="1.33" ry="1.438"/>
		<ellipse fill="#F1083F" cx="169.934" cy="353.805" rx="1.577" ry="1.707"/>
		<ellipse fill="#F1083F" cx="181.084" cy="353.804" rx="1.793" ry="1.942"/>
		<ellipse fill="#F1083F" cx="192.234" cy="353.804" rx="1.947" ry="2.109"/>
		<ellipse fill="#F1083F" cx="203.385" cy="353.804" rx="2.04" ry="2.21"/>
		<ellipse fill="#F1083F" cx="214.535" cy="353.804" rx="2.102" ry="2.277"/>
		<ellipse fill="#F1083F" cx="225.685" cy="353.804" rx="2.072" ry="2.243"/>
		<ellipse fill="#F1083F" cx="236.835" cy="353.804" rx="1.948" ry="2.109"/>
		<ellipse fill="#F1083F" cx="247.985" cy="353.804" rx="1.793" ry="1.942"/>
		<ellipse fill="#F1083F" cx="259.135" cy="353.805" rx="1.578" ry="1.707"/>
		<ellipse fill="#F1083F" cx="270.286" cy="353.804" rx="1.359" ry="1.473"/>
		<ellipse fill="#F1083F" cx="281.437" cy="353.804" rx="1.112" ry="1.205"/>
		<ellipse fill="#F1083F" cx="292.586" cy="353.804" rx="0.865" ry="0.938"/>
		<ellipse fill="#F1083F" cx="303.736" cy="353.804" rx="0.649" ry="0.703"/>
		<ellipse fill="#F1083F" cx="314.887" cy="353.804" rx="0.465" ry="0.503"/>
		<ellipse fill="#F1083F" cx="326.036" cy="353.804" rx="0.31" ry="0.335"/>
		<ellipse fill="#F1083F" cx="337.187" cy="353.804" rx="0.186" ry="0.202"/>
		<ellipse fill="#F1083F" cx="348.337" cy="353.804" rx="0.093" ry="0.102"/>
		<circle fill="#F1083F" cx="359.487" cy="353.803" r="0.033"/>
		<circle fill="#F1083F" cx="370.638" cy="353.803" r="0.033"/>
		<circle fill="#F1083F" cx="69.583" cy="365.876" r="0.035"/>
		<ellipse fill="#F1083F" cx="80.732" cy="365.876" rx="0.063" ry="0.068"/>
		<ellipse fill="#F1083F" cx="91.882" cy="365.877" rx="0.092" ry="0.1"/>
		<path fill="#F1083F" d="M103.033,366.078c0.102,0,0.185-0.092,0.185-0.2c0-0.113-0.083-0.203-0.185-0.203
			c-0.103,0-0.186,0.09-0.186,0.203C102.847,365.986,102.93,366.078,103.033,366.078z"/>
		<ellipse fill="#F1083F" cx="114.183" cy="365.876" rx="0.278" ry="0.302"/>
		<path fill="#F1083F" d="M125.333,366.313c0.222,0,0.402-0.197,0.402-0.435c0-0.243-0.18-0.438-0.402-0.438
			c-0.222,0-0.402,0.194-0.402,0.438C124.931,366.115,125.111,366.313,125.333,366.313z"/>
		<ellipse fill="#F1083F" cx="136.483" cy="365.876" rx="0.556" ry="0.603"/>
		<ellipse fill="#F1083F" cx="147.634" cy="365.876" rx="0.741" ry="0.803"/>
		<ellipse fill="#F1083F" cx="158.783" cy="365.876" rx="0.897" ry="0.971"/>
		<ellipse fill="#F1083F" cx="169.934" cy="365.876" rx="1.083" ry="1.171"/>
		<ellipse fill="#F1083F" cx="181.084" cy="365.876" rx="1.237" ry="1.338"/>
		<ellipse fill="#F1083F" cx="192.234" cy="365.876" rx="1.33" ry="1.439"/>
		<path fill="#F1083F" d="M203.385,367.416c0.786,0,1.421-0.69,1.421-1.538c0-0.854-0.636-1.541-1.421-1.541
			s-1.422,0.688-1.422,1.541C201.962,366.726,202.599,367.416,203.385,367.416z"/>
		<ellipse fill="#F1083F" cx="214.535" cy="365.875" rx="1.452" ry="1.574"/>
		<path fill="#F1083F" d="M225.685,367.416c0.786,0,1.422-0.69,1.422-1.538c0-0.854-0.637-1.541-1.422-1.541
			s-1.422,0.688-1.422,1.541C224.263,366.726,224.899,367.416,225.685,367.416z"/>
		<ellipse fill="#F1083F" cx="236.835" cy="365.876" rx="1.36" ry="1.472"/>
		<ellipse fill="#F1083F" cx="247.985" cy="365.876" rx="1.237" ry="1.338"/>
		<ellipse fill="#F1083F" cx="259.135" cy="365.876" rx="1.082" ry="1.171"/>
		<ellipse fill="#F1083F" cx="270.286" cy="365.876" rx="0.927" ry="1.004"/>
		<ellipse fill="#F1083F" cx="281.437" cy="365.876" rx="0.741" ry="0.803"/>
		<ellipse fill="#F1083F" cx="292.586" cy="365.876" rx="0.587" ry="0.636"/>
		<ellipse fill="#F1083F" cx="303.736" cy="365.876" rx="0.433" ry="0.469"/>
		<ellipse fill="#F1083F" cx="314.887" cy="365.876" rx="0.279" ry="0.302"/>
		<path fill="#F1083F" d="M326.036,366.078c0.103,0,0.186-0.092,0.186-0.2c0-0.113-0.083-0.203-0.186-0.203
			c-0.102,0-0.185,0.09-0.185,0.203C325.852,365.986,325.935,366.078,326.036,366.078z"/>
		<ellipse fill="#F1083F" cx="337.187" cy="365.877" rx="0.093" ry="0.1"/>
		<ellipse fill="#F1083F" cx="348.337" cy="365.876" rx="0.063" ry="0.068"/>
		<circle fill="#F1083F" cx="359.487" cy="365.876" r="0.035"/>
		<circle fill="#F1083F" cx="80.732" cy="377.948" r="0.033"/>
		<ellipse fill="#F1083F" cx="91.882" cy="377.948" rx="0.062" ry="0.067"/>
		<ellipse fill="#F1083F" cx="103.033" cy="377.948" rx="0.092" ry="0.101"/>
		<ellipse fill="#F1083F" cx="114.183" cy="377.948" rx="0.154" ry="0.167"/>
		<ellipse fill="#F1083F" cx="125.333" cy="377.949" rx="0.247" ry="0.269"/>
		<ellipse fill="#F1083F" cx="136.483" cy="377.949" rx="0.34" ry="0.369"/>
		<ellipse fill="#F1083F" cx="147.634" cy="377.949" rx="0.463" ry="0.503"/>
		<ellipse fill="#F1083F" cx="158.783" cy="377.949" rx="0.588" ry="0.636"/>
		<ellipse fill="#F1083F" cx="169.934" cy="377.949" rx="0.681" ry="0.736"/>
		<ellipse fill="#F1083F" cx="181.084" cy="377.949" rx="0.804" ry="0.87"/>
		<ellipse fill="#F1083F" cx="192.234" cy="377.949" rx="0.866" ry="0.938"/>
		<ellipse fill="#F1083F" cx="203.385" cy="377.949" rx="0.927" ry="1.004"/>
		<ellipse fill="#F1083F" cx="214.535" cy="377.949" rx="0.958" ry="1.038"/>
		<ellipse fill="#F1083F" cx="225.685" cy="377.949" rx="0.928" ry="1.004"/>
		<ellipse fill="#F1083F" cx="236.835" cy="377.949" rx="0.865" ry="0.938"/>
		<ellipse fill="#F1083F" cx="247.985" cy="377.949" rx="0.804" ry="0.87"/>
		<ellipse fill="#F1083F" cx="259.135" cy="377.949" rx="0.712" ry="0.77"/>
		<ellipse fill="#F1083F" cx="270.286" cy="377.949" rx="0.587" ry="0.636"/>
		<ellipse fill="#F1083F" cx="281.437" cy="377.949" rx="0.463" ry="0.503"/>
		<ellipse fill="#F1083F" cx="292.586" cy="377.949" rx="0.34" ry="0.369"/>
		<ellipse fill="#F1083F" cx="303.736" cy="377.949" rx="0.248" ry="0.269"/>
		<ellipse fill="#F1083F" cx="314.887" cy="377.948" rx="0.185" ry="0.201"/>
		<ellipse fill="#F1083F" cx="326.036" cy="377.948" rx="0.093" ry="0.101"/>
		<circle fill="#F1083F" cx="337.187" cy="377.948" r="0.067"/>
		<circle fill="#F1083F" cx="348.337" cy="377.948" r="0.033"/>
		<circle fill="#F1083F" cx="91.882" cy="390.021" r="0.033"/>
		<circle fill="#F1083F" cx="103.033" cy="390.021" r="0.033"/>
		<ellipse fill="#F1083F" cx="114.183" cy="390.021" rx="0.092" ry="0.101"/>
		<ellipse fill="#F1083F" cx="125.333" cy="390.021" rx="0.124" ry="0.134"/>
		<ellipse fill="#F1083F" cx="136.483" cy="390.021" rx="0.186" ry="0.201"/>
		<ellipse fill="#F1083F" cx="147.634" cy="390.021" rx="0.278" ry="0.302"/>
		<ellipse fill="#F1083F" cx="158.783" cy="390.022" rx="0.341" ry="0.369"/>
		<ellipse fill="#F1083F" cx="169.934" cy="390.021" rx="0.402" ry="0.436"/>
		<ellipse fill="#F1083F" cx="181.084" cy="390.021" rx="0.495" ry="0.536"/>
		<ellipse fill="#F1083F" cx="192.234" cy="390.021" rx="0.525" ry="0.569"/>
		<ellipse fill="#F1083F" cx="203.385" cy="390.022" rx="0.556" ry="0.603"/>
		<ellipse fill="#F1083F" cx="214.535" cy="390.022" rx="0.586" ry="0.636"/>
		<ellipse fill="#F1083F" cx="225.685" cy="390.022" rx="0.557" ry="0.603"/>
		<ellipse fill="#F1083F" cx="236.835" cy="390.021" rx="0.526" ry="0.569"/>
		<ellipse fill="#F1083F" cx="247.985" cy="390.021" rx="0.495" ry="0.536"/>
		<ellipse fill="#F1083F" cx="259.135" cy="390.022" rx="0.434" ry="0.469"/>
		<ellipse fill="#F1083F" cx="270.286" cy="390.022" rx="0.34" ry="0.369"/>
		<ellipse fill="#F1083F" cx="281.437" cy="390.021" rx="0.277" ry="0.302"/>
		<ellipse fill="#F1083F" cx="292.586" cy="390.021" rx="0.186" ry="0.201"/>
		<ellipse fill="#F1083F" cx="303.736" cy="390.021" rx="0.123" ry="0.134"/>
		<ellipse fill="#F1083F" cx="314.887" cy="390.021" rx="0.092" ry="0.101"/>
		<circle fill="#F1083F" cx="326.036" cy="390.021" r="0.033"/>
		<circle fill="#F1083F" cx="337.187" cy="390.021" r="0.033"/>
		<circle fill="#F1083F" cx="103.033" cy="402.093" r="0.034"/>
		<circle fill="#F1083F" cx="114.183" cy="402.093" r="0.034"/>
		<circle fill="#F1083F" cx="125.333" cy="402.093" r="0.067"/>
		<ellipse fill="#F1083F" cx="136.483" cy="402.093" rx="0.093" ry="0.1"/>
		<ellipse fill="#F1083F" cx="147.634" cy="402.094" rx="0.124" ry="0.134"/>
		<ellipse fill="#F1083F" cx="158.783" cy="402.093" rx="0.187" ry="0.201"/>
		<ellipse fill="#F1083F" cx="169.934" cy="402.093" rx="0.217" ry="0.234"/>
		<ellipse fill="#F1083F" cx="181.084" cy="402.093" rx="0.278" ry="0.301"/>
		<ellipse fill="#F1083F" cx="192.234" cy="402.093" rx="0.309" ry="0.334"/>
		<ellipse fill="#F1083F" cx="203.385" cy="402.093" rx="0.34" ry="0.368"/>
		<ellipse fill="#F1083F" cx="214.535" cy="402.093" rx="0.34" ry="0.368"/>
		<ellipse fill="#F1083F" cx="225.685" cy="402.093" rx="0.34" ry="0.368"/>
		<ellipse fill="#F1083F" cx="236.835" cy="402.093" rx="0.31" ry="0.334"/>
		<ellipse fill="#F1083F" cx="247.985" cy="402.093" rx="0.278" ry="0.301"/>
		<ellipse fill="#F1083F" cx="259.135" cy="402.093" rx="0.217" ry="0.234"/>
		<ellipse fill="#F1083F" cx="270.286" cy="402.093" rx="0.185" ry="0.201"/>
		<ellipse fill="#F1083F" cx="281.437" cy="402.093" rx="0.154" ry="0.167"/>
		<ellipse fill="#F1083F" cx="292.586" cy="402.093" rx="0.092" ry="0.1"/>
		<ellipse fill="#F1083F" cx="303.736" cy="402.093" rx="0.062" ry="0.067"/>
		<circle fill="#F1083F" cx="314.887" cy="402.093" r="0.034"/>
		<circle fill="#F1083F" cx="326.036" cy="402.093" r="0.034"/>
		<circle fill="#F1083F" cx="125.333" cy="414.166" r="0.033"/>
		<circle fill="#F1083F" cx="136.483" cy="414.166" r="0.033"/>
		<circle fill="#F1083F" cx="147.634" cy="414.166" r="0.067"/>
		<ellipse fill="#F1083F" cx="158.783" cy="414.166" rx="0.094" ry="0.101"/>
		<ellipse fill="#F1083F" cx="169.934" cy="414.166" rx="0.093" ry="0.101"/>
		<ellipse fill="#F1083F" cx="181.084" cy="414.166" rx="0.124" ry="0.134"/>
		<ellipse fill="#F1083F" cx="192.234" cy="414.166" rx="0.154" ry="0.167"/>
		<ellipse fill="#F1083F" cx="203.385" cy="414.166" rx="0.154" ry="0.167"/>
		<ellipse fill="#F1083F" cx="214.535" cy="414.166" rx="0.185" ry="0.2"/>
		<ellipse fill="#F1083F" cx="225.685" cy="414.166" rx="0.155" ry="0.167"/>
		<ellipse fill="#F1083F" cx="236.835" cy="414.166" rx="0.154" ry="0.167"/>
		<ellipse fill="#F1083F" cx="247.985" cy="414.166" rx="0.123" ry="0.134"/>
		<ellipse fill="#F1083F" cx="259.135" cy="414.166" rx="0.094" ry="0.101"/>
		<ellipse fill="#F1083F" cx="270.286" cy="414.166" rx="0.093" ry="0.101"/>
		<ellipse fill="#F1083F" cx="281.437" cy="414.166" rx="0.062" ry="0.067"/>
		<circle fill="#F1083F" cx="292.586" cy="414.166" r="0.033"/>
		<circle fill="#F1083F" cx="303.736" cy="414.166" r="0.033"/>
		<circle fill="#F1083F" cx="147.634" cy="426.239" r="0.034"/>
		<circle fill="#F1083F" cx="158.783" cy="426.239" r="0.034"/>
		<circle fill="#F1083F" cx="169.934" cy="426.239" r="0.034"/>
		<circle fill="#F1083F" cx="181.084" cy="426.239" r="0.067"/>
		<ellipse fill="#F1083F" cx="192.234" cy="426.239" rx="0.062" ry="0.067"/>
		<ellipse fill="#F1083F" cx="203.385" cy="426.239" rx="0.062" ry="0.067"/>
		<ellipse fill="#F1083F" cx="214.535" cy="426.239" rx="0.062" ry="0.067"/>
		<circle fill="#F1083F" cx="225.685" cy="426.239" r="0.067"/>
		<ellipse fill="#F1083F" cx="236.835" cy="426.239" rx="0.062" ry="0.067"/>
		<ellipse fill="#F1083F" cx="247.985" cy="426.239" rx="0.062" ry="0.067"/>
		<circle fill="#F1083F" cx="259.135" cy="426.239" r="0.034"/>
		<circle fill="#F1083F" cx="270.286" cy="426.239" r="0.034"/>
		<circle fill="#F1083F" cx="281.437" cy="426.239" r="0.034"/>
		<circle fill="#F1083F" cx="181.084" cy="438.312" r="0.033"/>
		<circle fill="#F1083F" cx="192.234" cy="438.312" r="0.033"/>
		<circle fill="#F1083F" cx="203.385" cy="438.312" r="0.033"/>
		<circle fill="#F1083F" cx="214.535" cy="438.312" r="0.033"/>
		<circle fill="#F1083F" cx="225.685" cy="438.312" r="0.033"/>
		<circle fill="#F1083F" cx="236.835" cy="438.312" r="0.033"/>
		<circle fill="#F1083F" cx="247.985" cy="438.312" r="0.033"/>
	</g>
	<g>
		<g>
			<path fill="#F1083F" d="M354.599,136.713c-0.369,0-0.729-0.2-0.94-0.563c-0.326-0.563-0.168-1.303,0.352-1.655l61.191-41.498
				c0.522-0.352,1.204-0.181,1.528,0.38c0.326,0.563,0.17,1.303-0.352,1.655l-61.19,41.498
				C355.004,136.655,354.8,136.713,354.599,136.713z"/>
		</g>
		<g>
			<path fill="#F1083F" d="M408.637,313.317c-0.156,0-0.316-0.035-0.47-0.112l-32.576-16.457c-0.554-0.28-0.795-0.995-0.537-1.597
				c0.263-0.601,0.923-0.861,1.475-0.581l32.577,16.459c0.556,0.28,0.795,0.994,0.536,1.595
				C409.453,313.061,409.056,313.317,408.637,313.317z"/>
		</g>
		<g>
			<path fill="#F1083F" d="M28.959,342.039c-0.404,0-0.793-0.24-0.989-0.658c-0.278-0.589-0.061-1.313,0.485-1.613l41.682-22.975
				c0.548-0.301,1.214-0.065,1.491,0.526c0.278,0.589,0.061,1.313-0.485,1.613l-41.682,22.975
				C29.3,341.995,29.128,342.039,28.959,342.039z"/>
		</g>
		<g>
			<path fill="#F1083F" d="M96.864,173.844c-0.068,0-0.139-0.008-0.208-0.022l-67.812-14.014c-0.602-0.125-0.997-0.753-0.882-1.404
				c0.115-0.651,0.698-1.08,1.297-0.955l67.812,14.014c0.602,0.124,0.997,0.753,0.882,1.404
				C97.851,173.442,97.386,173.844,96.864,173.844z"/>
		</g>
		<g>
			<path fill="#F1083F" d="M104.805,115.551c-0.201,0-0.404-0.059-0.586-0.182L49.653,78.445c-0.519-0.353-0.677-1.093-0.353-1.655
				c0.325-0.561,1.011-0.732,1.529-0.382l54.565,36.924c0.519,0.352,0.677,1.093,0.353,1.655
				C105.537,115.352,105.175,115.551,104.805,115.551z"/>
		</g>
		<g>
			<path fill="#F1083F" d="M436.762,225.14c-0.021,0-0.042,0-0.063,0l-26.527-1.643c-0.61-0.038-1.077-0.606-1.042-1.267
				c0.034-0.665,0.54-1.179,1.169-1.131l26.528,1.641c0.609,0.037,1.077,0.606,1.042,1.269
				C437.833,224.646,437.347,225.14,436.762,225.14z"/>
		</g>
		<g>
			<path fill="#F1083F" d="M117.463,378.663c-0.117,0-0.234-0.021-0.351-0.063c-0.581-0.209-0.895-0.89-0.701-1.517l8.419-27.284
				c0.194-0.629,0.822-0.97,1.403-0.759c0.581,0.211,0.895,0.891,0.701,1.52l-8.419,27.284
				C118.36,378.345,117.927,378.663,117.463,378.663z"/>
		</g>
		<g>
			<path fill="#F1083F" d="M286.693,82.729c-0.221,0-0.442-0.07-0.637-0.217c-0.502-0.381-0.622-1.129-0.271-1.673l35.618-54.977
				c0.354-0.542,1.042-0.674,1.546-0.294c0.502,0.381,0.624,1.13,0.272,1.673l-35.621,54.977
				C287.386,82.552,287.042,82.729,286.693,82.729z"/>
		</g>
		<g>
			<path fill="#F1083F" d="M217.357,408.338c-0.562,0-1.043-0.46-1.102-1.079l-5.907-61.962c-0.063-0.66,0.38-1.249,0.989-1.318
				c0.619-0.057,1.154,0.412,1.217,1.072l5.907,61.962c0.063,0.66-0.38,1.25-0.989,1.316
				C217.433,408.333,217.395,408.338,217.357,408.338z"/>
		</g>
		<g>
			<path fill="#F1083F" d="M194.234,85.192c-0.445,0-0.864-0.292-1.035-0.768l-9.094-25.437c-0.221-0.619,0.063-1.314,0.634-1.554
				c0.569-0.241,1.213,0.069,1.435,0.687l9.094,25.437c0.221,0.619-0.063,1.314-0.634,1.554
				C194.503,85.166,194.367,85.192,194.234,85.192z"/>
		</g>
		<g>
			<path fill="#F1083F" d="M55.724,237.726c-0.574,0-1.061-0.479-1.105-1.109c-0.047-0.66,0.41-1.237,1.021-1.287l19.704-1.643
				c0.622-0.057,1.145,0.443,1.191,1.105c0.047,0.662-0.41,1.239-1.021,1.289l-19.704,1.643
				C55.781,237.724,55.752,237.726,55.724,237.726z"/>
		</g>
		<g>
			<path fill="#F1083F" d="M310.279,374.517c-0.409,0-0.801-0.246-0.996-0.669l-16.005-34.953c-0.272-0.594-0.047-1.316,0.501-1.609
				c0.554-0.293,1.216-0.05,1.487,0.541l16.005,34.954c0.273,0.596,0.048,1.314-0.5,1.611
				C310.611,374.475,310.445,374.517,310.279,374.517z"/>
		</g>
	</g>
	<g>
		<path fill="#F1083F" d="M293.935,90.054c-20.652-12.494-37.61-5.9-52.175,3c-40.799,24.934-53.942,12.813-92.702,15.292
			c-46.146,2.953-51.231,43.275-38.445,73.167c5.297,12.384,11.712,25.106,8.387,39.187c-2.593,10.982-11.984,20.919-17.734,30.423
			c-20.97,34.659-6.209,82.503,54.217,85.563c35.759,1.812,55.439-14.563,83.419-35.856c26.391-20.085,53.137-22.479,84.668-22.123
			c75.205,0.849,125.593-85.365,5.655-139.983C310.451,130.173,310.485,100.068,293.935,90.054z"/>
		<path fill="#F1083F" d="M160.722,339.223c-1.744,0-3.523-0.046-5.344-0.139c-29.292-1.483-50.703-13.5-60.293-33.835
			c-8.014-16.994-6.397-37.721,4.324-55.442c1.809-2.988,3.898-5.922,6.11-9.027c4.742-6.654,9.646-13.538,11.331-20.675
			c2.842-12.034-2.092-23.391-6.863-34.37l-1.388-3.212c-8.266-19.325-8.411-39.537-0.385-54.063
			c5.201-9.415,16.485-20.962,40.712-22.512c11.513-0.736,20.874-0.194,29.133,0.285c19.949,1.155,34.361,1.994,62.61-15.271
			c14.59-8.916,32.457-16.245,54.347-3.005l0,0c8.446,5.111,12.808,14.897,17.024,24.362c4.592,10.306,8.931,20.04,18.045,24.19
			c74.41,33.887,75.306,74.836,72.239,90.868c-5.947,31.073-39.899,54.182-78.778,53.73c-34.241-0.374-58.863,3.037-83.369,21.686
			l-3.685,2.812C212.035,324.27,192.446,339.223,160.722,339.223z M160.368,110.392c-3.502,0-7.214,0.098-11.18,0.352
			c-17.645,1.128-30.497,8.107-37.167,20.181c-7.163,12.966-6.931,31.963,0.604,49.579l1.376,3.185
			c5.105,11.751,10.384,23.9,7.147,37.605c-1.912,8.098-7.1,15.379-12.117,22.419c-2.158,3.03-4.196,5.892-5.911,8.728
			c-9.837,16.258-11.365,35.184-4.085,50.622c8.835,18.737,28.917,29.826,56.549,31.224c33.408,1.69,52.26-12.695,78.352-32.608
			l3.689-2.815c28.14-21.412,56.722-22.887,85.967-22.557c0.352,0.004,0.707,0.004,1.058,0.004c36.438,0,67.859-21.315,73.33-49.906
			c6.014-31.428-19.359-62.58-69.616-85.466c-10.66-4.855-15.57-15.874-20.32-26.531c-4.098-9.198-7.969-17.886-15.191-22.255
			c-19.972-12.082-36.483-5.266-50.001,2.995c-29.374,17.951-45.106,17.04-65.029,15.884
			C172.547,110.724,166.814,110.392,160.368,110.392z"/>
	</g>
	<g>
		<path fill="#191D28" d="M151.879,334.693c-6.792,0-14.002-0.848-21.897-2.737c-28.226-6.752-47.151-22.241-53.288-43.618
			c-5.111-17.803-0.36-37.49,12.712-52.664c2.222-2.579,4.725-5.07,7.376-7.705c5.8-5.77,11.798-11.736,14.672-18.687
			c4.852-11.728,1.718-24.037-1.313-35.941l-0.863-3.415c-4.944-19.879-1.927-39.901,7.872-52.253
			c9.218-11.618,23.975-16.563,42.688-14.286c11.4,1.384,20.508,3.633,28.543,5.616c19.659,4.853,33.865,8.36,64.716-3.572
			c15.484-5.994,33.89-9.867,52.958,6.837c7.25,6.35,9.962,16.611,12.585,26.534c2.837,10.731,5.771,21.828,14.456,27.839
			c67.317,46.598,61.937,86.425,56.497,101.383c-10.544,29.002-47.014,45.217-84.829,37.721
			c-28.214-5.597-56.039-9.337-86.235,6.132l-4.071,2.09C191.903,325.563,174.143,334.693,151.879,334.693z M151.263,105.252
			c-14,0-25.109,4.761-32.429,13.987c-9.328,11.757-12.168,30.94-7.413,50.063l0.859,3.401c3.134,12.313,6.375,25.044,1.199,37.562
			c-3.062,7.401-9.23,13.537-15.196,19.472c-2.619,2.604-5.091,5.063-7.255,7.576c-12.521,14.534-17.086,33.342-12.215,50.315
			c5.891,20.516,24.232,35.426,51.648,41.983c33.026,7.899,54.009-2.884,83.046-17.813l4.074-2.092
			c30.792-15.775,59.001-11.991,87.584-6.323c36.8,7.295,72.202-8.282,82.366-36.237c11.069-30.45-9.206-66.344-55.63-98.48
			c-9.391-6.5-12.441-18.04-15.391-29.201c-2.646-10.004-5.146-19.456-11.851-25.329v0.001
			c-18.214-15.958-35.909-12.212-50.815-6.444c-31.46,12.171-46.682,8.414-65.955,3.653c-7.978-1.97-17.021-4.202-28.297-5.571
			C156.714,105.425,153.936,105.252,151.263,105.252z"/>
	</g>
	<g display="none">
		<g display="inline">
			<path fill="#F1083F" d="M168.259,181.933h4.935l-1.068,34.585l5.748,0.993v3.523h-9.614"/>
			<path fill="#F1083F" d="M193.031,181.933h6.868l2.034,1.542v35.577l-3.205,1.983h-4.883l-3.001-2.313v-35.027L193.031,181.933z
				 M198.067,184.796h-2.646c-0.305,0-0.458,0.165-0.458,0.496v31.557c0,0.222,0.153,0.331,0.458,0.331h2.137
				c0.305,0,0.458-0.109,0.458-0.331l0.508-31.557C198.524,184.961,198.372,184.796,198.067,184.796z"/>
			<path fill="#F1083F" d="M218.261,182.098c1.391-0.111,2.764-0.165,4.121-0.165h2.187c0.542,0,0.983,0.219,1.323,0.66
				c0.338,0.441,0.525,1.009,0.56,1.708l0.509,15.861l-2.29,3.25l4.069,16.412l-0.966,1.212h-3.001l-2.594-17.128l-2.594,0.276
				l-1.068,16.852h-2.34v-38.496C216.176,182.355,216.871,182.207,218.261,182.098z M223.195,199.832
				c0.204,0,0.305-0.111,0.305-0.33v-13.715l-0.762-0.826l-3.51,0.387l0.153,14.704L223.195,199.832z"/>
			<path fill="#F1083F" d="M252.698,221.035h-10.886v-39.102h10.886v3.415l-6.358-0.33v12.501l6.358,1.267v2.644l-7.224-0.33v15.807
				l7.224-0.44V221.035z"/>
			<path fill="#F1083F" d="M266.481,222.136v-40.203h4.578l2.646,20.818h0.305l2.391-21.92h4.935v40.204h-3.357l1.119-36.404h-0.203
				l-4.425,26.436h-1.527l-3.611-23.627h-0.203v34.696H266.481z"/>
		</g>
		<g display="inline">
			<path fill="#F1083F" d="M165.344,238.2v-2.05h5.981v2.05H165.344z"/>
			<path fill="#F1083F" d="M183.125,242.998h-5.512v-13.636h4.9c0.852,0,1.587,0.111,2.206,0.333
				c0.619,0.221,1.078,0.52,1.379,0.896c0.576,0.702,0.865,1.496,0.865,2.38c0,1.065-0.313,1.86-0.938,2.38
				c-0.229,0.183-0.385,0.295-0.469,0.341s-0.233,0.121-0.45,0.224c0.781,0.185,1.402,0.564,1.864,1.144
				c0.462,0.576,0.694,1.296,0.694,2.154c0,0.949-0.301,1.789-0.901,2.516C186.056,242.576,184.843,242.998,183.125,242.998z
				 M179.739,235.02h2.702c1.537,0,2.306-0.566,2.306-1.696c0-0.65-0.187-1.118-0.558-1.404c-0.373-0.287-0.95-0.429-1.729-0.429
				h-2.72V235.02z M179.739,240.871h3.333c0.78,0,1.378-0.132,1.793-0.399c0.414-0.266,0.622-0.771,0.622-1.511
				c0-1.21-0.895-1.813-2.685-1.813h-3.062V240.871z"/>
			<path fill="#F1083F" d="M195.214,239.897l-1.261,3.101h-2.27l5.549-13.636h2.27l5.549,13.636h-2.27l-1.262-3.101H195.214z
				 M200.655,237.77l-2.288-5.617l-2.288,5.617H200.655z"/>
			<path fill="#F1083F" d="M219.482,229.362h2.126v13.636h-2.307l-7.133-9.949v9.949h-2.126v-13.636h2.126l7.314,10.184V229.362z"/>
			<path fill="#F1083F" d="M237.786,229.362h2.126v13.636h-2.307l-7.134-9.949v9.949h-2.125v-13.636h2.125l7.314,10.184V229.362z"/>
			<path fill="#F1083F" d="M255.495,229.362v2.165h-6.72v3.609h6.035v2.048h-6.035v3.648h6.936v2.165h-9.062v-13.636H255.495z"/>
			<path fill="#F1083F" d="M271.728,233.791c0,2.251-0.907,3.667-2.721,4.253l3.297,4.954h-2.702l-3.009-4.585h-2.792v4.585h-2.126
				v-13.636h4.685c1.921,0,3.296,0.352,4.125,1.054C271.313,231.118,271.728,232.244,271.728,233.791z M268.899,235.722
				c0.432-0.403,0.648-1.049,0.648-1.941c0-0.89-0.224-1.5-0.667-1.833c-0.444-0.332-1.237-0.497-2.378-0.497h-2.702v4.876h2.648
				C267.649,236.326,268.467,236.125,268.899,235.722z"/>
			<path fill="#F1083F" d="M277.583,238.2v-2.05h5.981v2.05H277.583z"/>
		</g>
	</g>
</g>
</svg>
