<?xml version="1.0"?>
<svg xmlns="http://www.w3.org/2000/svg" id="Capa_1" enable-background="new 0 0 512 512" height="512px" viewBox="0 0 512 512" width="512px"><g><g><path d="m501.875 119.499c0-15.449-12.568-28.016-28.016-28.016h-133.416v-70.012c0-11.84-9.632-21.471-21.471-21.471h-190.024c-11.839 0-21.471 9.631-21.471 21.471v200.187h-51.037c-4.137 0-7.49 3.353-7.49 7.49s3.353 7.49 7.49 7.49h51.038v15.939h-51.038c-4.137 0-7.49 3.353-7.49 7.49s3.353 7.49 7.49 7.49h51.038v2.925c0 4.137 3.353 7.49 7.49 7.49s7.49-3.353 7.49-7.49v-2.925h40.401c4.137 0 7.49-3.353 7.49-7.49s-3.353-7.49-7.49-7.49h-40.401v-15.939h40.401c4.137 0 7.49-3.353 7.49-7.49s-3.353-7.49-7.49-7.49h-40.401v-200.187c0-3.579 2.912-6.491 6.491-6.491h190.024c3.579 0 6.491 2.912 6.491 6.491v70.012h-18.741v-47.611c.005-6.331-5.201-11.488-11.484-11.484h-142.556c-6.283-.004-11.49 5.153-11.484 11.484v101.638c0 3.327 1.431 6.319 3.7 8.419 2.057 1.93 4.783 3.055 7.785 3.066h83.43c4.137 0 7.49-3.353 7.49-7.49s-3.353-7.49-7.49-7.49h-64.415l52.263-38.059 44.949 32.732v195.357h-139.963c-3.579 0-6.491-2.912-6.491-6.491v-18.112c0-4.137-3.353-7.49-7.49-7.49s-7.49 3.353-7.49 7.49v18.112c0 11.839 9.631 21.471 21.471 21.471h139.962v136.958c0 15.449 12.568 28.016 28.016 28.016h176.932c15.449 0 28.016-12.568 28.016-28.016v-170.104c0-4.137-3.353-7.49-7.49-7.49s-7.49 3.353-7.49 7.49v107.067h-203.005v-254.38h203.006v108.777c0 4.137 3.353 7.49 7.49 7.49s7.49-3.353 7.49-7.49zm-225.65-72.132-52.265 38.06-52.265-38.06zm-120.047 87.42v-80.19l55.06 40.095zm135.565-80.19v37.374c-12.561 2.36-22.191 13.124-22.8 26.212l-32.26-23.491zm195.152 381.328v48.058c0 7.188-5.848 13.037-13.037 13.037h-176.932c-7.188 0-13.037-5.848-13.037-13.037v-48.058zm-203.006-284.339v-32.087c0-7.188 5.848-13.037 13.037-13.037h176.932c7.188 0 13.037 5.848 13.037 13.037v32.087z" data-original="#000000" class="active-path" data-old_color="#000000" fill="#E90A36"/><circle cx="385.392" cy="468.001" r="13.444" data-original="#000000" class="active-path" data-old_color="#000000" fill="#E90A36"/><path d="m370.267 39.378h80.216c4.137 0 7.49-3.353 7.49-7.49s-3.353-7.49-7.49-7.49h-80.216c-4.137 0-7.49 3.353-7.49 7.49s3.353 7.49 7.49 7.49z" data-original="#000000" class="active-path" data-old_color="#000000" fill="#E90A36"/><path d="m370.267 70.923h28.568c4.137 0 7.49-3.353 7.49-7.49s-3.353-7.49-7.49-7.49h-28.568c-4.137 0-7.49 3.353-7.49 7.49s3.353 7.49 7.49 7.49z" data-original="#000000" class="active-path" data-old_color="#000000" fill="#E90A36"/><path d="m27.524 176.477 13.044-15.061c2.708-3.127 2.369-7.857-.758-10.565-3.128-2.71-7.857-2.368-10.565.758l-17.291 19.965c-2.438 2.815-2.438 6.992-.001 9.807l17.291 19.966c2.718 3.137 7.452 3.456 10.566.759 3.127-2.708 3.466-7.438.759-10.566z" data-original="#000000" class="active-path" data-old_color="#000000" fill="#E90A36"/><path d="m61.831 202.105c3.114 2.699 7.848 2.377 10.566-.759l17.291-19.966c2.437-2.815 2.437-6.992-.001-9.807l-17.291-19.965c-2.707-3.128-7.438-3.466-10.565-.758-3.127 2.707-3.466 7.438-.758 10.565l13.044 15.061-13.045 15.062c-2.707 3.129-2.367 7.859.759 10.567z" data-original="#000000" class="active-path" data-old_color="#000000" fill="#E90A36"/><path d="m420.691 351.511c3.061 0 4.23 1.001 6.789 3.192 3.348 2.867 7.934 6.794 16.532 6.794 4.137 0 7.49-3.353 7.49-7.49s-3.353-7.49-7.49-7.49c-3.061 0-4.229-1.001-6.788-3.192-3.348-2.867-7.934-6.794-16.533-6.794s-13.184 3.927-16.532 6.794c-2.559 2.191-3.727 3.192-6.789 3.192-3.059 0-4.228-1.001-6.786-3.192-3.347-2.867-7.933-6.794-16.531-6.794s-13.183 3.927-16.53 6.794c-2.558 2.191-3.726 3.192-6.786 3.192s-4.228-1.001-6.787-3.192c-3.347-2.867-7.933-6.794-16.53-6.794-4.137 0-7.49 3.353-7.49 7.49s3.353 7.49 7.49 7.49c3.059 0 4.228 1.001 6.786 3.192 3.347 2.867 7.933 6.794 16.531 6.794 8.599 0 13.183-3.927 16.53-6.794 2.558-2.191 3.726-3.192 6.786-3.192s4.228 1.001 6.787 3.192c3.347 2.867 7.933 6.794 16.53 6.794 8.6 0 13.185-3.927 16.533-6.794 2.559-2.191 3.726-3.192 6.788-3.192z" data-original="#000000" class="active-path" data-old_color="#000000" fill="#E90A36"/><path d="m390.584 376.051c-3.347-2.867-7.933-6.794-16.531-6.794s-13.183 3.927-16.53 6.794c-2.558 2.191-3.726 3.192-6.786 3.192s-4.228-1.001-6.787-3.192c-3.347-2.867-7.933-6.794-16.53-6.794-4.137 0-7.49 3.353-7.49 7.49s3.353 7.49 7.49 7.49c3.059 0 4.228 1.001 6.786 3.192 3.347 2.867 7.933 6.794 16.531 6.794 8.599 0 13.183-3.927 16.53-6.794 2.558-2.191 3.726-3.192 6.786-3.192s4.228 1.001 6.787 3.192c3.347 2.867 7.933 6.794 16.53 6.794 4.137 0 7.49-3.353 7.49-7.49s-3.353-7.49-7.49-7.49c-3.059 0-4.228-1.001-6.786-3.192z" data-original="#000000" class="active-path" data-old_color="#000000" fill="#E90A36"/><path d="m229.063 236.637c4.137 0 7.49-3.353 7.49-7.49s-3.353-7.49-7.49-7.49h-37.433c-4.137 0-7.49 3.353-7.49 7.49s3.353 7.49 7.49 7.49z" data-original="#000000" class="active-path" data-old_color="#000000" fill="#E90A36"/><path d="m391.178 188.874c-24.146 0-45.148 13.672-55.705 33.674l-26.291 2.781c-3.494.37-4.843 4.745-2.164 7.018l18.662 15.837-18.662 15.837c-2.679 2.273-1.329 6.648 2.164 7.018l22.871 2.419c8.841 24.09 32.008 41.324 59.125 41.324 34.713 0 62.954-28.241 62.954-62.954s-28.241-62.954-62.954-62.954zm0 110.909c-26.442 0-47.954-21.512-47.954-47.954s21.512-47.955 47.954-47.955 47.954 21.513 47.954 47.955-21.512 47.954-47.954 47.954z" data-original="#000000" class="active-path" data-old_color="#000000" fill="#E90A36"/><ellipse cx="375.663" cy="245.313" rx="11.374" ry="11.374" transform="matrix(.973 -.23 .23 .973 -46.312 92.873)" data-original="#000000" class="active-path" data-old_color="#000000" fill="#E90A36"/></g></g> </svg>
